<?xml version="1.0" encoding="UTF-8" standalone="no"?>
<!-- Created with Inkscape (http://www.inkscape.org/) -->

<svg
   xmlns:dc="http://purl.org/dc/elements/1.1/"
   xmlns:cc="http://creativecommons.org/ns#"
   xmlns:rdf="http://www.w3.org/1999/02/22-rdf-syntax-ns#"
   xmlns:svg="http://www.w3.org/2000/svg"
   xmlns="http://www.w3.org/2000/svg"
   xmlns:sodipodi="http://sodipodi.sourceforge.net/DTD/sodipodi-0.dtd"
   xmlns:inkscape="http://www.inkscape.org/namespaces/inkscape"
   width="229.49205mm"
   height="96.135895mm"
   viewBox="0 0 229.49205 96.135895"
   version="1.1"
   id="svg45651"
   inkscape:version="0.92.3 (2405546, 2018-03-11)"
   sodipodi:docname="icons_only.svg">
  <defs
     id="defs45645">
    <marker
       inkscape:isstock="true"
       style="overflow:visible"
       id="marker59708-3"
       refX="0"
       refY="0"
       orient="auto"
       inkscape:stockid="DiamondSend"
       inkscape:collect="always">
      <path
         inkscape:connector-curvature="0"
         transform="matrix(0.2,0,0,0.2,-1.2,0)"
         style="fill:#000000;fill-opacity:1;fill-rule:evenodd;stroke:#000000;stroke-width:1.00000003pt;stroke-opacity:1"
         d="M 0,-7.0710768 -7.0710894,0 0,7.0710589 7.0710462,0 Z"
         id="path59706-5" />
    </marker>
    <marker
       inkscape:stockid="DiamondSend"
       orient="auto"
       refY="0"
       refX="0"
       id="marker7344"
       style="overflow:visible"
       inkscape:isstock="true">
      <path
         id="path7342"
         d="M 0,-7.0710768 -7.0710894,0 0,7.0710589 7.0710462,0 Z"
         style="fill:#000000;fill-opacity:1;fill-rule:evenodd;stroke:#000000;stroke-width:1.00000003pt;stroke-opacity:1"
         transform="matrix(0.2,0,0,0.2,-1.2,0)"
         inkscape:connector-curvature="0" />
    </marker>
    <marker
       inkscape:isstock="true"
       style="overflow:visible"
       id="marker59708-3-1"
       refX="0"
       refY="0"
       orient="auto"
       inkscape:stockid="DiamondSend"
       inkscape:collect="always">
      <path
         inkscape:connector-curvature="0"
         transform="matrix(0.2,0,0,0.2,-1.2,0)"
         style="fill:#000000;fill-opacity:1;fill-rule:evenodd;stroke:#000000;stroke-width:1.00000003pt;stroke-opacity:1"
         d="M 0,-7.0710768 -7.0710894,0 0,7.0710589 7.0710462,0 Z"
         id="path59706-5-2" />
    </marker>
    <marker
       inkscape:stockid="DiamondSend"
       orient="auto"
       refY="0"
       refX="0"
       id="marker7344-2"
       style="overflow:visible"
       inkscape:isstock="true">
      <path
         id="path7342-9"
         d="M 0,-7.0710768 -7.0710894,0 0,7.0710589 7.0710462,0 Z"
         style="fill:#000000;fill-opacity:1;fill-rule:evenodd;stroke:#000000;stroke-width:1.00000003pt;stroke-opacity:1"
         transform="matrix(0.2,0,0,0.2,-1.2,0)"
         inkscape:connector-curvature="0" />
    </marker>
    <marker
       inkscape:isstock="true"
       style="overflow:visible"
       id="marker59708-3-6"
       refX="0"
       refY="0"
       orient="auto"
       inkscape:stockid="DiamondSend"
       inkscape:collect="always">
      <path
         inkscape:connector-curvature="0"
         transform="matrix(0.2,0,0,0.2,-1.2,0)"
         style="fill:#000000;fill-opacity:1;fill-rule:evenodd;stroke:#000000;stroke-width:1.00000003pt;stroke-opacity:1"
         d="M 0,-7.0710768 -7.0710894,0 0,7.0710589 7.0710462,0 Z"
         id="path59706-5-26" />
    </marker>
    <marker
       inkscape:stockid="DiamondSend"
       orient="auto"
       refY="0"
       refX="0"
       id="marker7344-6"
       style="overflow:visible"
       inkscape:isstock="true">
      <path
         id="path7342-0"
         d="M 0,-7.0710768 -7.0710894,0 0,7.0710589 7.0710462,0 Z"
         style="fill:#000000;fill-opacity:1;fill-rule:evenodd;stroke:#000000;stroke-width:1.00000003pt;stroke-opacity:1"
         transform="matrix(0.2,0,0,0.2,-1.2,0)"
         inkscape:connector-curvature="0" />
    </marker>
  </defs>
  <sodipodi:namedview
     id="base"
     pagecolor="#ffffff"
     bordercolor="#666666"
     borderopacity="1.0"
     inkscape:pageopacity="0.0"
     inkscape:pageshadow="2"
     inkscape:zoom="0.35"
     inkscape:cx="1022.2572"
     inkscape:cy="-395.46871"
     inkscape:document-units="mm"
     inkscape:current-layer="layer1"
     showgrid="false"
     fit-margin-top="0"
     fit-margin-left="0"
     fit-margin-right="0"
     fit-margin-bottom="0"
     inkscape:window-width="1920"
     inkscape:window-height="1025"
     inkscape:window-x="0"
     inkscape:window-y="27"
     inkscape:window-maximized="1" />
  <metadata
     id="metadata45648">
    <rdf:RDF>
      <cc:Work
         rdf:about="">
        <dc:format>image/svg+xml</dc:format>
        <dc:type
           rdf:resource="http://purl.org/dc/dcmitype/StillImage" />
        <dc:title></dc:title>
      </cc:Work>
    </rdf:RDF>
  </metadata>
  <g
     inkscape:label="Layer 1"
     inkscape:groupmode="layer"
     id="layer1"
     transform="translate(390.66864,51.936993)">
    <g
       transform="matrix(0.35277777,0,0,-0.35277777,-471.87403,198.38334)"
       id="g38178">
      <path
         transform="scale(1,-1)"
         d="m 238.12496,-709.08186 a 7.5750856,7.5750842 0 0 1 7.69924,7.44839 7.5750856,7.5750842 0 0 1 -7.44792,7.69969 7.5750856,7.5750842 0 0 1 -7.70016,-7.44745 7.5750856,7.5750842 0 0 1 7.44698,-7.7006"
         sodipodi:open="true"
         sodipodi:end="4.6956164"
         sodipodi:start="4.6958607"
         sodipodi:ry="7.5750842"
         sodipodi:rx="7.5750856"
         sodipodi:cy="-701.50781"
         sodipodi:cx="238.25015"
         sodipodi:type="arc"
         id="path9189-62"
         style="opacity:1;fill:#b3b3b3;fill-opacity:0.4781022;stroke:#000000;stroke-width:0.97307765;stroke-miterlimit:4;stroke-dasharray:none;stroke-dashoffset:0;stroke-opacity:1" />
      <path
         transform="scale(1,-1)"
         d="m 538.67174,-709.08186 a 7.5750856,7.5750842 0 0 1 7.69924,7.44839 7.5750856,7.5750842 0 0 1 -7.44792,7.69969 7.5750856,7.5750842 0 0 1 -7.70015,-7.44745 7.5750856,7.5750842 0 0 1 7.44698,-7.7006"
         sodipodi:open="true"
         sodipodi:end="4.6956164"
         sodipodi:start="4.6958607"
         sodipodi:ry="7.5750842"
         sodipodi:rx="7.5750856"
         sodipodi:cy="-701.50781"
         sodipodi:cx="538.79694"
         sodipodi:type="arc"
         id="path9189-2-1"
         style="opacity:1;fill:#0b5eeb;fill-opacity:1;stroke:#000000;stroke-width:0.97307765;stroke-miterlimit:4;stroke-dasharray:none;stroke-dashoffset:0;stroke-opacity:1" />
      <path
         style="opacity:1;fill:#b3b3b3;fill-opacity:0.4781022;stroke:#000000;stroke-width:0.34328017;stroke-miterlimit:4;stroke-dasharray:none;stroke-dashoffset:0;stroke-opacity:1"
         id="path9189-60"
         sodipodi:type="arc"
         sodipodi:cx="90.437073"
         sodipodi:cy="142.07701"
         sodipodi:rx="2.6723218"
         sodipodi:ry="2.6723213"
         sodipodi:start="4.6958607"
         sodipodi:end="4.6956164"
         sodipodi:open="true"
         d="m 90.392906,139.40505 a 2.6723218,2.6723213 0 0 1 2.716121,2.62763 2.6723218,2.6723213 0 0 1 -2.627461,2.71628 2.6723218,2.6723213 0 0 1 -2.716442,-2.62729 2.6723218,2.6723213 0 0 1 2.627129,-2.7166"
         transform="matrix(2.8346458,0,0,-2.8346458,-18.106592,847.8579)" />
      <path
         style="opacity:1;fill:#b3b3b3;fill-opacity:0.4781022;stroke:#000000;stroke-width:0.34328017;stroke-miterlimit:4;stroke-dasharray:none;stroke-dashoffset:0;stroke-opacity:1"
         id="path9189-60-3"
         sodipodi:type="arc"
         sodipodi:cx="102.19531"
         sodipodi:cy="142.07701"
         sodipodi:rx="2.6723218"
         sodipodi:ry="2.6723213"
         sodipodi:start="4.6958607"
         sodipodi:end="4.6956164"
         sodipodi:open="true"
         d="m 102.15115,139.40505 a 2.6723218,2.6723213 0 0 1 2.71612,2.62763 2.6723218,2.6723213 0 0 1 -2.62746,2.71628 2.6723218,2.6723213 0 0 1 -2.716446,-2.62729 2.6723218,2.6723213 0 0 1 2.627126,-2.7166"
         transform="matrix(2.8346458,0,0,-2.8346458,-18.106592,847.8579)" />
      <path
         style="fill:none;stroke:#000000;stroke-width:0.30756316;stroke-linecap:butt;stroke-linejoin:miter;stroke-miterlimit:4;stroke-dasharray:none;stroke-opacity:1;marker-end:url(#marker59708-3)"
         d="m 92.764813,140.56298 c 0,0 3.746934,-2.0516 6.785636,0.39771"
         id="path9278-6"
         inkscape:connector-curvature="0"
         sodipodi:nodetypes="cc"
         transform="matrix(2.8346458,0,0,-2.8346458,-18.106592,847.8579)" />
      <path
         sodipodi:nodetypes="cc"
         inkscape:connector-curvature="0"
         id="path7340"
         d="m 99.873143,143.65538 c 0,0 -3.746934,2.0516 -6.785636,-0.39771"
         style="fill:none;stroke:#000000;stroke-width:0.30756316;stroke-linecap:butt;stroke-linejoin:miter;stroke-miterlimit:4;stroke-dasharray:none;stroke-opacity:1;marker-end:url(#marker7344)"
         transform="matrix(2.8346458,0,0,-2.8346458,-18.106592,847.8579)" />
      <path
         style="opacity:1;fill:#0b5eeb;fill-opacity:1;stroke:#000000;stroke-width:0.34328017;stroke-miterlimit:4;stroke-dasharray:none;stroke-dashoffset:0;stroke-opacity:1"
         id="path9189-60-7"
         sodipodi:type="arc"
         sodipodi:cx="138.12981"
         sodipodi:cy="149.96725"
         sodipodi:rx="2.6723218"
         sodipodi:ry="2.6723213"
         sodipodi:start="4.6958607"
         sodipodi:end="4.6956164"
         sodipodi:open="true"
         d="m 138.08564,147.2953 a 2.6723218,2.6723213 0 0 1 2.71612,2.62762 2.6723218,2.6723213 0 0 1 -2.62746,2.71629 2.6723218,2.6723213 0 0 1 -2.71644,-2.6273 2.6723218,2.6723213 0 0 1 2.62713,-2.7166"
         transform="matrix(2.8346458,0,0,-2.8346458,147.24785,870.22395)" />
      <path
         style="opacity:1;fill:#bd860a;fill-opacity:0.72941176;stroke:#000000;stroke-width:0.34328017;stroke-miterlimit:4;stroke-dasharray:none;stroke-dashoffset:0;stroke-opacity:1"
         id="path9189-60-3-0"
         sodipodi:type="arc"
         sodipodi:cx="149.88805"
         sodipodi:cy="149.96725"
         sodipodi:rx="2.6723218"
         sodipodi:ry="2.6723213"
         sodipodi:start="4.6958607"
         sodipodi:end="4.6956164"
         sodipodi:open="true"
         d="m 149.84388,147.2953 a 2.6723218,2.6723213 0 0 1 2.71612,2.62762 2.6723218,2.6723213 0 0 1 -2.62746,2.71629 2.6723218,2.6723213 0 0 1 -2.71644,-2.6273 2.6723218,2.6723213 0 0 1 2.62713,-2.7166"
         transform="matrix(2.8346458,0,0,-2.8346458,147.24785,870.22395)" />
      <path
         style="fill:none;stroke:#000000;stroke-width:0.30756316;stroke-linecap:butt;stroke-linejoin:miter;stroke-miterlimit:4;stroke-dasharray:none;stroke-opacity:1;marker-end:url(#marker59708-3-1)"
         d="m 140.45755,148.45323 c 0,0 3.74693,-2.0516 6.78564,0.39771"
         id="path9278-6-9"
         inkscape:connector-curvature="0"
         sodipodi:nodetypes="cc"
         transform="matrix(2.8346458,0,0,-2.8346458,147.24785,870.22395)" />
      <path
         sodipodi:nodetypes="cc"
         inkscape:connector-curvature="0"
         id="path7340-3"
         d="m 147.56588,151.54563 c 0,0 -3.74693,2.0516 -6.78564,-0.39771"
         style="fill:none;stroke:#000000;stroke-width:0.30756316;stroke-linecap:butt;stroke-linejoin:miter;stroke-miterlimit:4;stroke-dasharray:none;stroke-opacity:1;marker-end:url(#marker7344-2)"
         transform="matrix(2.8346458,0,0,-2.8346458,147.24785,870.22395)" />
      <g
         id="g8138"
         transform="matrix(2.8346458,0,0,-2.8346458,324.14493,1065.7217)">
        <path
           style="opacity:1;fill:#b3b3b3;fill-opacity:0.4781022;stroke:#000000;stroke-width:0.34328017;stroke-miterlimit:4;stroke-dasharray:none;stroke-dashoffset:0;stroke-opacity:1"
           id="path9189-60-1"
           sodipodi:type="arc"
           sodipodi:cx="181.74409"
           sodipodi:cy="128.48656"
           sodipodi:rx="2.6723218"
           sodipodi:ry="2.6723213"
           sodipodi:start="4.6958607"
           sodipodi:end="4.6956164"
           sodipodi:open="true"
           d="m 181.69993,125.8146 a 2.6723218,2.6723213 0 0 1 2.71612,2.62763 2.6723218,2.6723213 0 0 1 -2.62746,2.71628 2.6723218,2.6723213 0 0 1 -2.71644,-2.6273 2.6723218,2.6723213 0 0 1 2.62713,-2.7166" />
        <path
           style="opacity:1;fill:#0b5eeb;fill-opacity:1;stroke:#000000;stroke-width:0.34328017;stroke-miterlimit:4;stroke-dasharray:none;stroke-dashoffset:0;stroke-opacity:1"
           id="path9189-60-3-8"
           sodipodi:type="arc"
           sodipodi:cx="193.50233"
           sodipodi:cy="128.48656"
           sodipodi:rx="2.6723218"
           sodipodi:ry="2.6723213"
           sodipodi:start="4.6958607"
           sodipodi:end="4.6956164"
           sodipodi:open="true"
           d="m 193.45817,125.8146 a 2.6723218,2.6723213 0 0 1 2.71612,2.62763 2.6723218,2.6723213 0 0 1 -2.62746,2.71628 2.6723218,2.6723213 0 0 1 -2.71644,-2.6273 2.6723218,2.6723213 0 0 1 2.62712,-2.7166" />
        <path
           style="fill:none;stroke:#000000;stroke-width:0.30756316;stroke-linecap:butt;stroke-linejoin:miter;stroke-miterlimit:4;stroke-dasharray:none;stroke-opacity:1;marker-end:url(#marker59708-3-6)"
           d="m 184.07183,126.97253 c 0,0 3.74693,-2.0516 6.78564,0.39771"
           id="path9278-6-7"
           inkscape:connector-curvature="0"
           sodipodi:nodetypes="cc" />
        <path
           sodipodi:nodetypes="cc"
           inkscape:connector-curvature="0"
           id="path7340-9"
           d="m 191.18016,130.06493 c 0,0 -3.74693,2.0516 -6.78564,-0.39771"
           style="fill:none;stroke:#000000;stroke-width:0.30756316;stroke-linecap:butt;stroke-linejoin:miter;stroke-miterlimit:4;stroke-dasharray:none;stroke-opacity:1;marker-end:url(#marker7344-6)" />
      </g>
    </g>
  </g>
</svg>
