<?xml version="1.0" encoding="utf-8" standalone="no"?>
<!DOCTYPE svg PUBLIC "-//W3C//DTD SVG 1.1//EN"
  "http://www.w3.org/Graphics/SVG/1.1/DTD/svg11.dtd">
<!-- Created with matplotlib (https://matplotlib.org/) -->
<svg height="144pt" version="1.1" viewBox="0 0 360 144" width="360pt" xmlns="http://www.w3.org/2000/svg" xmlns:xlink="http://www.w3.org/1999/xlink">
 <defs>
  <style type="text/css">
*{stroke-linecap:butt;stroke-linejoin:round;}
  </style>
 </defs>
 <g id="figure_1">
  <g id="patch_1">
   <path d="M 0 144 
L 360 144 
L 360 0 
L 0 0 
z
" style="fill:#ffffff;"/>
  </g>
  <g id="axes_1">
   <g id="patch_2">
    <path d="M 45 126 
L 324 126 
L 324 17.28 
L 45 17.28 
z
" style="fill:#ffffff;"/>
   </g>
   <g id="matplotlib.axis_1">
    <g id="xtick_1">
     <g id="line2d_1">
      <defs>
       <path d="M 0 0 
L 0 3.5 
" id="m1abddbe8e9" style="stroke:#000000;stroke-width:0.8;"/>
      </defs>
      <g>
       <use style="stroke:#000000;stroke-width:0.8;" x="267.983326" xlink:href="#m1abddbe8e9" y="126"/>
      </g>
     </g>
     <g id="text_1">
      <!-- 165 -->
      <defs>
       <path d="M 37.25 0 
L 28.46875 0 
L 28.46875 56 
Q 25.296875 52.984375 20.140625 49.953125 
Q 14.984375 46.921875 10.890625 45.40625 
L 10.890625 53.90625 
Q 18.265625 57.375 23.78125 62.296875 
Q 29.296875 67.234375 31.59375 71.875 
L 37.25 71.875 
z
" id="ArialMT-49"/>
       <path d="M 49.75 54.046875 
L 41.015625 53.375 
Q 39.84375 58.546875 37.703125 60.890625 
Q 34.125 64.65625 28.90625 64.65625 
Q 24.703125 64.65625 21.53125 62.3125 
Q 17.390625 59.28125 14.984375 53.46875 
Q 12.59375 47.65625 12.5 36.921875 
Q 15.671875 41.75 20.265625 44.09375 
Q 24.859375 46.4375 29.890625 46.4375 
Q 38.671875 46.4375 44.84375 39.96875 
Q 51.03125 33.5 51.03125 23.25 
Q 51.03125 16.5 48.125 10.71875 
Q 45.21875 4.9375 40.140625 1.859375 
Q 35.0625 -1.21875 28.609375 -1.21875 
Q 17.625 -1.21875 10.6875 6.859375 
Q 3.765625 14.9375 3.765625 33.5 
Q 3.765625 54.25 11.421875 63.671875 
Q 18.109375 71.875 29.4375 71.875 
Q 37.890625 71.875 43.28125 67.140625 
Q 48.6875 62.40625 49.75 54.046875 
z
M 13.875 23.1875 
Q 13.875 18.65625 15.796875 14.5 
Q 17.71875 10.359375 21.1875 8.171875 
Q 24.65625 6 28.46875 6 
Q 34.03125 6 38.03125 10.484375 
Q 42.046875 14.984375 42.046875 22.703125 
Q 42.046875 30.125 38.078125 34.390625 
Q 34.125 38.671875 28.125 38.671875 
Q 22.171875 38.671875 18.015625 34.390625 
Q 13.875 30.125 13.875 23.1875 
z
" id="ArialMT-54"/>
       <path d="M 4.15625 18.75 
L 13.375 19.53125 
Q 14.40625 12.796875 18.140625 9.390625 
Q 21.875 6 27.15625 6 
Q 33.5 6 37.890625 10.78125 
Q 42.28125 15.578125 42.28125 23.484375 
Q 42.28125 31 38.0625 35.34375 
Q 33.84375 39.703125 27 39.703125 
Q 22.75 39.703125 19.328125 37.765625 
Q 15.921875 35.84375 13.96875 32.765625 
L 5.71875 33.84375 
L 12.640625 70.609375 
L 48.25 70.609375 
L 48.25 62.203125 
L 19.671875 62.203125 
L 15.828125 42.96875 
Q 22.265625 47.46875 29.34375 47.46875 
Q 38.71875 47.46875 45.15625 40.96875 
Q 51.609375 34.46875 51.609375 24.265625 
Q 51.609375 14.546875 45.953125 7.46875 
Q 39.0625 -1.21875 27.15625 -1.21875 
Q 17.390625 -1.21875 11.203125 4.25 
Q 5.03125 9.71875 4.15625 18.75 
z
" id="ArialMT-53"/>
      </defs>
      <g transform="translate(259.641919 140.157813)scale(0.1 -0.1)">
       <use xlink:href="#ArialMT-49"/>
       <use x="55.615234" xlink:href="#ArialMT-54"/>
       <use x="111.230469" xlink:href="#ArialMT-53"/>
      </g>
     </g>
    </g>
    <g id="xtick_2">
     <g id="line2d_2">
      <g>
       <use style="stroke:#000000;stroke-width:0.8;" x="310.043627" xlink:href="#m1abddbe8e9" y="126"/>
      </g>
     </g>
     <g id="text_2">
      <!-- 198 -->
      <defs>
       <path d="M 5.46875 16.546875 
L 13.921875 17.328125 
Q 14.984375 11.375 18.015625 8.6875 
Q 21.046875 6 25.78125 6 
Q 29.828125 6 32.875 7.859375 
Q 35.9375 9.71875 37.890625 12.8125 
Q 39.84375 15.921875 41.15625 21.1875 
Q 42.484375 26.46875 42.484375 31.9375 
Q 42.484375 32.515625 42.4375 33.6875 
Q 39.796875 29.5 35.234375 26.875 
Q 30.671875 24.265625 25.34375 24.265625 
Q 16.453125 24.265625 10.296875 30.703125 
Q 4.15625 37.15625 4.15625 47.703125 
Q 4.15625 58.59375 10.578125 65.234375 
Q 17 71.875 26.65625 71.875 
Q 33.640625 71.875 39.421875 68.109375 
Q 45.21875 64.359375 48.21875 57.390625 
Q 51.21875 50.4375 51.21875 37.25 
Q 51.21875 23.53125 48.234375 15.40625 
Q 45.265625 7.28125 39.375 3.03125 
Q 33.5 -1.21875 25.59375 -1.21875 
Q 17.1875 -1.21875 11.859375 3.4375 
Q 6.546875 8.109375 5.46875 16.546875 
z
M 41.453125 48.140625 
Q 41.453125 55.71875 37.421875 60.15625 
Q 33.40625 64.59375 27.734375 64.59375 
Q 21.875 64.59375 17.53125 59.8125 
Q 13.1875 55.03125 13.1875 47.40625 
Q 13.1875 40.578125 17.3125 36.296875 
Q 21.4375 32.03125 27.484375 32.03125 
Q 33.59375 32.03125 37.515625 36.296875 
Q 41.453125 40.578125 41.453125 48.140625 
z
" id="ArialMT-57"/>
       <path d="M 17.671875 38.8125 
Q 12.203125 40.828125 9.5625 44.53125 
Q 6.9375 48.25 6.9375 53.421875 
Q 6.9375 61.234375 12.546875 66.546875 
Q 18.171875 71.875 27.484375 71.875 
Q 36.859375 71.875 42.578125 66.421875 
Q 48.296875 60.984375 48.296875 53.171875 
Q 48.296875 48.1875 45.671875 44.5 
Q 43.0625 40.828125 37.75 38.8125 
Q 44.34375 36.671875 47.78125 31.875 
Q 51.21875 27.09375 51.21875 20.453125 
Q 51.21875 11.28125 44.71875 5.03125 
Q 38.234375 -1.21875 27.640625 -1.21875 
Q 17.046875 -1.21875 10.546875 5.046875 
Q 4.046875 11.328125 4.046875 20.703125 
Q 4.046875 27.6875 7.59375 32.390625 
Q 11.140625 37.109375 17.671875 38.8125 
z
M 15.921875 53.71875 
Q 15.921875 48.640625 19.1875 45.40625 
Q 22.46875 42.1875 27.6875 42.1875 
Q 32.765625 42.1875 36.015625 45.375 
Q 39.265625 48.578125 39.265625 53.21875 
Q 39.265625 58.0625 35.90625 61.359375 
Q 32.5625 64.65625 27.59375 64.65625 
Q 22.5625 64.65625 19.234375 61.421875 
Q 15.921875 58.203125 15.921875 53.71875 
z
M 13.09375 20.65625 
Q 13.09375 16.890625 14.875 13.375 
Q 16.65625 9.859375 20.171875 7.921875 
Q 23.6875 6 27.734375 6 
Q 34.03125 6 38.125 10.046875 
Q 42.234375 14.109375 42.234375 20.359375 
Q 42.234375 26.703125 38.015625 30.859375 
Q 33.796875 35.015625 27.4375 35.015625 
Q 21.234375 35.015625 17.15625 30.90625 
Q 13.09375 26.8125 13.09375 20.65625 
z
" id="ArialMT-56"/>
      </defs>
      <g transform="translate(301.702221 140.157813)scale(0.1 -0.1)">
       <use xlink:href="#ArialMT-49"/>
       <use x="55.615234" xlink:href="#ArialMT-57"/>
       <use x="111.230469" xlink:href="#ArialMT-56"/>
      </g>
     </g>
    </g>
   </g>
   <g id="matplotlib.axis_2"/>
   <g id="line2d_3">
    <path clip-path="url(#pe5442e04c9)" d="M 57.681818 119.055723 
L 76.800137 119.055723 
L 78.074692 22.221818 
L 79.349246 22.221818 
L 80.623801 119.055723 
L 108.664002 119.055723 
L 109.938556 22.221818 
L 111.213111 22.221818 
L 112.487666 119.055723 
L 116.311329 119.055723 
L 117.585884 22.221818 
L 118.860439 22.221818 
L 120.134993 119.055723 
L 157.097076 119.055723 
L 158.371631 22.221818 
L 163.469849 22.221818 
L 164.744404 119.055723 
L 168.568068 119.055723 
L 169.842622 22.221818 
L 171.117177 22.221818 
L 172.391731 119.055723 
L 187.686386 119.055723 
L 188.960941 22.221818 
L 190.235496 22.221818 
L 191.51005 119.055723 
L 213.177478 119.055723 
L 214.452033 22.221818 
L 219.550251 22.221818 
L 220.824806 119.055723 
L 225.923024 119.055723 
L 227.197579 22.221818 
L 228.472133 22.221818 
L 229.746688 119.055723 
L 233.570352 119.055723 
L 234.844906 22.221818 
L 236.119461 119.055723 
L 239.943125 119.055723 
L 241.217679 22.221818 
L 246.315898 22.221818 
L 247.590452 119.055723 
L 273.081544 119.055723 
L 274.356099 22.221818 
L 275.630653 119.055723 
L 284.552535 119.055723 
L 285.82709 22.221818 
L 287.101645 22.221818 
L 288.376199 119.055723 
L 296.023527 119.055723 
L 297.298081 22.221818 
L 298.572636 22.221818 
L 299.84719 119.055723 
L 311.318182 119.055723 
L 311.318182 119.055723 
" style="fill:none;stroke:#000000;stroke-linecap:square;stroke-opacity:0.4;stroke-width:3;"/>
   </g>
   <g id="line2d_4">
    <path clip-path="url(#pe5442e04c9)" d="M 57.681818 112.111126 
L 58.956373 112.125077 
L 60.230927 111.810458 
L 61.505482 112.031064 
L 62.780037 111.130631 
L 64.054591 109.487429 
L 65.329146 113.1664 
L 66.6037 116.124917 
L 67.878255 115.194269 
L 69.15281 114.096334 
L 70.427364 117.032914 
L 71.701919 119.342982 
L 72.976473 119.430067 
L 74.251028 118.683388 
L 75.525582 120.132361 
L 76.800137 106.745589 
L 78.074692 99.585182 
L 79.349246 94.27795 
L 80.623801 92.907867 
L 81.898355 93.213299 
L 83.17291 92.717018 
L 84.447465 100.44382 
L 85.722019 98.2578 
L 86.996574 101.591941 
L 89.545683 106.3788 
L 90.820238 105.658858 
L 92.094792 106.997112 
L 93.369347 107.434525 
L 94.643901 108.056074 
L 95.918456 109.770461 
L 97.193011 110.972154 
L 98.467565 112.818651 
L 99.74212 113.027184 
L 101.016674 114.974466 
L 103.565783 112.621241 
L 104.840338 113.951387 
L 106.114893 112.933205 
L 107.389447 113.904024 
L 108.664002 113.345247 
L 109.938556 106.904266 
L 111.213111 105.233379 
L 112.487666 104.294082 
L 113.76222 105.997409 
L 115.036775 108.451321 
L 116.311329 104.763407 
L 118.860439 98.136752 
L 120.134993 93.313768 
L 121.409548 95.222414 
L 122.684102 96.620542 
L 123.958657 100.723911 
L 125.233212 101.493794 
L 126.507766 104.680629 
L 127.782321 104.261473 
L 129.056875 107.833466 
L 130.33143 107.407577 
L 131.605984 108.218934 
L 132.880539 112.261332 
L 134.155094 112.04683 
L 135.429648 111.086296 
L 136.704203 111.287891 
L 137.978757 112.363171 
L 139.253312 110.608415 
L 140.527867 116.149926 
L 141.802421 112.94429 
L 143.076976 115.634187 
L 144.35153 116.697499 
L 145.626085 118.690659 
L 146.90064 118.407832 
L 148.175194 119.568152 
L 149.449749 117.008801 
L 150.724303 118.58629 
L 153.273413 119.593734 
L 154.547967 121.058182 
L 155.822522 120.256019 
L 157.097076 112.909233 
L 158.371631 94.810464 
L 159.646185 80.330189 
L 160.92074 71.152148 
L 162.195295 71.320645 
L 163.469849 69.399103 
L 164.744404 74.196284 
L 166.018958 75.049138 
L 167.293513 79.10994 
L 168.568068 78.189418 
L 169.842622 77.897673 
L 171.117177 79.083326 
L 172.391731 81.877284 
L 173.666286 82.127939 
L 174.940841 85.404178 
L 176.215395 84.020808 
L 177.48995 87.63971 
L 178.764504 90.920073 
L 180.039059 91.343208 
L 181.313614 93.673613 
L 182.588168 95.417546 
L 183.862723 100.777721 
L 185.137277 100.954216 
L 186.411832 106.676271 
L 187.686386 96.704683 
L 190.235496 87.93735 
L 191.51005 88.616533 
L 192.784605 92.503691 
L 194.059159 95.280385 
L 195.333714 95.019727 
L 196.608269 94.045626 
L 197.882823 97.384194 
L 199.157378 98.145277 
L 200.431932 100.540494 
L 201.706487 102.047553 
L 202.981042 106.407777 
L 204.255596 103.246939 
L 205.530151 106.938253 
L 206.804705 107.1037 
L 210.628369 113.423258 
L 211.902924 112.534115 
L 213.177478 108.368339 
L 214.452033 100.852762 
L 215.726587 85.604995 
L 217.001142 83.199699 
L 218.275697 81.847115 
L 219.550251 78.623742 
L 220.824806 81.196809 
L 222.09936 87.457291 
L 223.373915 86.537395 
L 225.923024 91.368904 
L 227.197579 83.971685 
L 228.472133 74.743244 
L 229.746688 75.514174 
L 231.021243 74.896095 
L 232.295797 91.288971 
L 233.570352 83.958101 
L 234.844906 77.509064 
L 236.119461 83.902802 
L 237.394016 86.745672 
L 238.66857 90.784523 
L 239.943125 90.396714 
L 241.217679 71.645947 
L 242.492234 48.554252 
L 243.766788 42.161923 
L 246.315898 42.110364 
L 248.865007 55.853433 
L 250.139561 56.208811 
L 251.414116 58.835651 
L 252.688671 62.048801 
L 253.963225 65.716362 
L 255.23778 79.613127 
L 256.512334 75.584832 
L 257.786889 80.134137 
L 259.061444 88.771178 
L 260.335998 87.184769 
L 261.610553 89.481043 
L 262.885107 93.762291 
L 264.159662 97.079616 
L 265.434217 98.869339 
L 266.708771 105.159527 
L 267.983326 104.469349 
L 269.25788 105.956134 
L 270.532435 106.739725 
L 271.806989 103.218929 
L 273.081544 99.092281 
L 274.356099 94.197241 
L 275.630653 97.020159 
L 276.905208 100.394505 
L 278.179762 98.354064 
L 279.454317 101.360494 
L 280.728872 102.803609 
L 282.003426 104.566878 
L 283.277981 108.952445 
L 284.552535 105.001147 
L 285.82709 98.172553 
L 287.101645 96.052756 
L 288.376199 96.15058 
L 289.650754 97.45584 
L 290.925308 96.179823 
L 292.199863 98.104422 
L 293.474418 101.666533 
L 294.748972 102.320694 
L 296.023527 104.863263 
L 297.298081 96.610522 
L 298.572636 91.907212 
L 299.84719 97.746918 
L 301.121745 99.047809 
L 302.3963 100.70174 
L 303.670854 99.449733 
L 304.945409 103.647501 
L 306.219963 107.232207 
L 307.494518 108.086383 
L 308.769073 109.955066 
L 310.043627 110.747174 
L 311.318182 112.467674 
L 311.318182 112.467674 
" style="fill:none;stroke:#000000;stroke-linecap:square;stroke-width:3;"/>
   </g>
   <g id="patch_3">
    <path d="M 45 126 
L 324 126 
" style="fill:none;stroke:#000000;stroke-linecap:square;stroke-linejoin:miter;stroke-width:0.8;"/>
   </g>
   <g id="text_3">
    <!-- $\Delta$F/F calcium trace -->
    <defs>
     <path d="M 34.1875 63.1875 
L 14.15625 8.203125 
L 54.25 8.203125 
z
M 0.78125 0 
L 28.609375 72.90625 
L 39.796875 72.90625 
L 67.578125 0 
z
" id="DejaVuSans-916"/>
     <path d="M 7.375 0 
L 7.375 71.578125 
L 56.453125 71.578125 
L 56.453125 59.46875 
L 21.828125 59.46875 
L 21.828125 42.53125 
L 51.703125 42.53125 
L 51.703125 30.421875 
L 21.828125 30.421875 
L 21.828125 0 
z
" id="Arial-BoldMT-70"/>
     <path d="M -0.140625 -1.21875 
L 17.578125 72.796875 
L 27.875 72.796875 
L 9.96875 -1.21875 
z
" id="Arial-BoldMT-47"/>
     <path id="Arial-BoldMT-32"/>
     <path d="M 52.390625 36.53125 
L 38.875 34.078125 
Q 38.1875 38.140625 35.765625 40.1875 
Q 33.34375 42.234375 29.5 42.234375 
Q 24.359375 42.234375 21.3125 38.6875 
Q 18.265625 35.15625 18.265625 26.859375 
Q 18.265625 17.625 21.359375 13.8125 
Q 24.46875 10.015625 29.6875 10.015625 
Q 33.59375 10.015625 36.078125 12.234375 
Q 38.578125 14.453125 39.59375 19.875 
L 53.078125 17.578125 
Q 50.984375 8.296875 45.015625 3.5625 
Q 39.0625 -1.171875 29.046875 -1.171875 
Q 17.671875 -1.171875 10.90625 6 
Q 4.15625 13.1875 4.15625 25.875 
Q 4.15625 38.71875 10.9375 45.875 
Q 17.71875 53.03125 29.296875 53.03125 
Q 38.765625 53.03125 44.359375 48.953125 
Q 49.953125 44.875 52.390625 36.53125 
z
" id="Arial-BoldMT-99"/>
     <path d="M 17.4375 36.03125 
L 4.984375 38.28125 
Q 7.078125 45.796875 12.203125 49.40625 
Q 17.328125 53.03125 27.4375 53.03125 
Q 36.625 53.03125 41.109375 50.859375 
Q 45.609375 48.6875 47.4375 45.34375 
Q 49.265625 42 49.265625 33.0625 
L 49.125 17.046875 
Q 49.125 10.203125 49.78125 6.953125 
Q 50.4375 3.71875 52.25 0 
L 38.671875 0 
Q 38.140625 1.375 37.359375 4.046875 
Q 37.015625 5.28125 36.859375 5.671875 
Q 33.34375 2.25 29.34375 0.53125 
Q 25.34375 -1.171875 20.796875 -1.171875 
Q 12.796875 -1.171875 8.171875 3.171875 
Q 3.5625 7.515625 3.5625 14.15625 
Q 3.5625 18.5625 5.65625 22 
Q 7.765625 25.4375 11.546875 27.265625 
Q 15.328125 29.109375 22.46875 30.46875 
Q 32.078125 32.28125 35.796875 33.84375 
L 35.796875 35.203125 
Q 35.796875 39.15625 33.84375 40.84375 
Q 31.890625 42.53125 26.46875 42.53125 
Q 22.796875 42.53125 20.75 41.09375 
Q 18.703125 39.65625 17.4375 36.03125 
z
M 35.796875 24.90625 
Q 33.15625 24.03125 27.4375 22.796875 
Q 21.734375 21.578125 19.96875 20.40625 
Q 17.28125 18.5 17.28125 15.578125 
Q 17.28125 12.703125 19.421875 10.59375 
Q 21.578125 8.5 24.90625 8.5 
Q 28.609375 8.5 31.984375 10.9375 
Q 34.46875 12.796875 35.25 15.484375 
Q 35.796875 17.234375 35.796875 22.171875 
z
" id="Arial-BoldMT-97"/>
     <path d="M 7.171875 0 
L 7.171875 71.578125 
L 20.90625 71.578125 
L 20.90625 0 
z
" id="Arial-BoldMT-108"/>
     <path d="M 7.171875 58.890625 
L 7.171875 71.578125 
L 20.90625 71.578125 
L 20.90625 58.890625 
z
M 7.171875 0 
L 7.171875 51.859375 
L 20.90625 51.859375 
L 20.90625 0 
z
" id="Arial-BoldMT-105"/>
     <path d="M 41.3125 0 
L 41.3125 7.765625 
Q 38.484375 3.609375 33.859375 1.21875 
Q 29.25 -1.171875 24.125 -1.171875 
Q 18.890625 -1.171875 14.734375 1.125 
Q 10.59375 3.421875 8.734375 7.5625 
Q 6.890625 11.71875 6.890625 19.046875 
L 6.890625 51.859375 
L 20.609375 51.859375 
L 20.609375 28.03125 
Q 20.609375 17.09375 21.359375 14.625 
Q 22.125 12.15625 24.125 10.71875 
Q 26.125 9.28125 29.203125 9.28125 
Q 32.71875 9.28125 35.5 11.203125 
Q 38.28125 13.140625 39.296875 15.984375 
Q 40.328125 18.84375 40.328125 29.984375 
L 40.328125 51.859375 
L 54.046875 51.859375 
L 54.046875 0 
z
" id="Arial-BoldMT-117"/>
     <path d="M 6.15625 51.859375 
L 18.796875 51.859375 
L 18.796875 44.78125 
Q 25.59375 53.03125 34.96875 53.03125 
Q 39.9375 53.03125 43.59375 50.96875 
Q 47.265625 48.921875 49.609375 44.78125 
Q 53.03125 48.921875 56.984375 50.96875 
Q 60.9375 53.03125 65.4375 53.03125 
Q 71.140625 53.03125 75.09375 50.703125 
Q 79.046875 48.390625 81 43.890625 
Q 82.421875 40.578125 82.421875 33.15625 
L 82.421875 0 
L 68.703125 0 
L 68.703125 29.640625 
Q 68.703125 37.359375 67.28125 39.59375 
Q 65.375 42.53125 61.421875 42.53125 
Q 58.546875 42.53125 56 40.765625 
Q 53.46875 39.015625 52.34375 35.625 
Q 51.21875 32.234375 51.21875 24.90625 
L 51.21875 0 
L 37.5 0 
L 37.5 28.421875 
Q 37.5 35.984375 36.765625 38.171875 
Q 36.03125 40.375 34.484375 41.453125 
Q 32.953125 42.53125 30.328125 42.53125 
Q 27.15625 42.53125 24.609375 40.8125 
Q 22.078125 39.109375 20.96875 35.890625 
Q 19.875 32.671875 19.875 25.203125 
L 19.875 0 
L 6.15625 0 
z
" id="Arial-BoldMT-109"/>
     <path d="M 30.953125 51.859375 
L 30.953125 40.921875 
L 21.578125 40.921875 
L 21.578125 20.015625 
Q 21.578125 13.671875 21.84375 12.625 
Q 22.125 11.578125 23.078125 10.890625 
Q 24.03125 10.203125 25.390625 10.203125 
Q 27.296875 10.203125 30.90625 11.53125 
L 32.078125 0.875 
Q 27.296875 -1.171875 21.234375 -1.171875 
Q 17.53125 -1.171875 14.546875 0.0625 
Q 11.578125 1.3125 10.1875 3.296875 
Q 8.796875 5.28125 8.25 8.640625 
Q 7.8125 11.03125 7.8125 18.3125 
L 7.8125 40.921875 
L 1.515625 40.921875 
L 1.515625 51.859375 
L 7.8125 51.859375 
L 7.8125 62.15625 
L 21.578125 70.171875 
L 21.578125 51.859375 
z
" id="Arial-BoldMT-116"/>
     <path d="M 20.3125 0 
L 6.59375 0 
L 6.59375 51.859375 
L 19.34375 51.859375 
L 19.34375 44.484375 
Q 22.609375 49.703125 25.21875 51.359375 
Q 27.828125 53.03125 31.15625 53.03125 
Q 35.84375 53.03125 40.1875 50.4375 
L 35.9375 38.484375 
Q 32.46875 40.71875 29.5 40.71875 
Q 26.609375 40.71875 24.609375 39.125 
Q 22.609375 37.546875 21.453125 33.390625 
Q 20.3125 29.25 20.3125 16.015625 
z
" id="Arial-BoldMT-114"/>
     <path d="M 37.203125 16.5 
L 50.875 14.203125 
Q 48.25 6.6875 42.546875 2.75 
Q 36.859375 -1.171875 28.328125 -1.171875 
Q 14.796875 -1.171875 8.296875 7.671875 
Q 3.171875 14.75 3.171875 25.53125 
Q 3.171875 38.421875 9.90625 45.71875 
Q 16.65625 53.03125 26.953125 53.03125 
Q 38.53125 53.03125 45.21875 45.390625 
Q 51.90625 37.75 51.609375 21.96875 
L 17.234375 21.96875 
Q 17.390625 15.875 20.5625 12.46875 
Q 23.734375 9.078125 28.46875 9.078125 
Q 31.6875 9.078125 33.875 10.828125 
Q 36.078125 12.59375 37.203125 16.5 
z
M 37.984375 30.375 
Q 37.84375 36.328125 34.90625 39.421875 
Q 31.984375 42.53125 27.78125 42.53125 
Q 23.296875 42.53125 20.359375 39.265625 
Q 17.4375 35.984375 17.484375 30.375 
z
" id="Arial-BoldMT-101"/>
    </defs>
    <g transform="translate(57.681818 -11.670049)scale(0.1 -0.1)">
     <use transform="translate(0 0.09375)" xlink:href="#DejaVuSans-916"/>
     <use transform="translate(68.408203 0.09375)" xlink:href="#Arial-BoldMT-70"/>
     <use transform="translate(129.492188 0.09375)" xlink:href="#Arial-BoldMT-47"/>
     <use transform="translate(157.275391 0.09375)" xlink:href="#Arial-BoldMT-70"/>
     <use transform="translate(218.359375 0.09375)" xlink:href="#Arial-BoldMT-32"/>
     <use transform="translate(246.142578 0.09375)" xlink:href="#Arial-BoldMT-99"/>
     <use transform="translate(301.757812 0.09375)" xlink:href="#Arial-BoldMT-97"/>
     <use transform="translate(357.373047 0.09375)" xlink:href="#Arial-BoldMT-108"/>
     <use transform="translate(385.15625 0.09375)" xlink:href="#Arial-BoldMT-99"/>
     <use transform="translate(440.771484 0.09375)" xlink:href="#Arial-BoldMT-105"/>
     <use transform="translate(468.554688 0.09375)" xlink:href="#Arial-BoldMT-117"/>
     <use transform="translate(529.638672 0.09375)" xlink:href="#Arial-BoldMT-109"/>
     <use transform="translate(618.554688 0.09375)" xlink:href="#Arial-BoldMT-32"/>
     <use transform="translate(646.337891 0.09375)" xlink:href="#Arial-BoldMT-116"/>
     <use transform="translate(679.638672 0.09375)" xlink:href="#Arial-BoldMT-114"/>
     <use transform="translate(718.554688 0.09375)" xlink:href="#Arial-BoldMT-97"/>
     <use transform="translate(774.169922 0.09375)" xlink:href="#Arial-BoldMT-99"/>
     <use transform="translate(829.785156 0.09375)" xlink:href="#Arial-BoldMT-101"/>
    </g>
   </g>
   <g id="text_4">
    <!-- Deconvolved spike trace -->
    <defs>
     <path d="M 7.234375 71.578125 
L 33.640625 71.578125 
Q 42.578125 71.578125 47.265625 70.21875 
Q 53.5625 68.359375 58.046875 63.625 
Q 62.546875 58.890625 64.890625 52.03125 
Q 67.234375 45.171875 67.234375 35.109375 
Q 67.234375 26.265625 65.046875 19.875 
Q 62.359375 12.0625 57.375 7.234375 
Q 53.609375 3.5625 47.21875 1.515625 
Q 42.4375 0 34.421875 0 
L 7.234375 0 
z
M 21.6875 59.46875 
L 21.6875 12.0625 
L 32.46875 12.0625 
Q 38.53125 12.0625 41.21875 12.75 
Q 44.734375 13.625 47.046875 15.71875 
Q 49.359375 17.828125 50.828125 22.625 
Q 52.296875 27.4375 52.296875 35.75 
Q 52.296875 44.046875 50.828125 48.484375 
Q 49.359375 52.9375 46.71875 55.421875 
Q 44.09375 57.90625 40.046875 58.796875 
Q 37.015625 59.46875 28.171875 59.46875 
z
" id="Arial-BoldMT-68"/>
     <path d="M 4 26.65625 
Q 4 33.5 7.375 39.890625 
Q 10.75 46.296875 16.921875 49.65625 
Q 23.09375 53.03125 30.71875 53.03125 
Q 42.484375 53.03125 50 45.390625 
Q 57.515625 37.75 57.515625 26.078125 
Q 57.515625 14.3125 49.921875 6.5625 
Q 42.328125 -1.171875 30.8125 -1.171875 
Q 23.6875 -1.171875 17.21875 2.046875 
Q 10.75 5.28125 7.375 11.5 
Q 4 17.71875 4 26.65625 
z
M 18.0625 25.921875 
Q 18.0625 18.21875 21.71875 14.109375 
Q 25.390625 10.015625 30.765625 10.015625 
Q 36.140625 10.015625 39.765625 14.109375 
Q 43.40625 18.21875 43.40625 26.03125 
Q 43.40625 33.640625 39.765625 37.734375 
Q 36.140625 41.84375 30.765625 41.84375 
Q 25.390625 41.84375 21.71875 37.734375 
Q 18.0625 33.640625 18.0625 25.921875 
z
" id="Arial-BoldMT-111"/>
     <path d="M 54.34375 0 
L 40.625 0 
L 40.625 26.46875 
Q 40.625 34.859375 39.75 37.328125 
Q 38.875 39.796875 36.890625 41.15625 
Q 34.90625 42.53125 32.125 42.53125 
Q 28.5625 42.53125 25.734375 40.578125 
Q 22.90625 38.625 21.84375 35.390625 
Q 20.796875 32.171875 20.796875 23.484375 
L 20.796875 0 
L 7.078125 0 
L 7.078125 51.859375 
L 19.828125 51.859375 
L 19.828125 44.234375 
Q 26.609375 53.03125 36.921875 53.03125 
Q 41.453125 53.03125 45.203125 51.390625 
Q 48.96875 49.75 50.890625 47.203125 
Q 52.828125 44.671875 53.578125 41.453125 
Q 54.34375 38.234375 54.34375 32.234375 
z
" id="Arial-BoldMT-110"/>
     <path d="M 21.4375 0 
L 0.53125 51.859375 
L 14.9375 51.859375 
L 24.703125 25.390625 
L 27.546875 16.546875 
Q 28.65625 19.921875 28.953125 21 
Q 29.640625 23.1875 30.421875 25.390625 
L 40.28125 51.859375 
L 54.390625 51.859375 
L 33.796875 0 
z
" id="Arial-BoldMT-118"/>
     <path d="M 54.734375 0 
L 42 0 
L 42 7.625 
Q 38.8125 3.171875 34.484375 1 
Q 30.171875 -1.171875 25.78125 -1.171875 
Q 16.84375 -1.171875 10.46875 6.03125 
Q 4.109375 13.234375 4.109375 26.125 
Q 4.109375 39.3125 10.296875 46.171875 
Q 16.5 53.03125 25.984375 53.03125 
Q 34.671875 53.03125 41.015625 45.796875 
L 41.015625 71.578125 
L 54.734375 71.578125 
z
M 18.109375 27.046875 
Q 18.109375 18.75 20.40625 15.046875 
Q 23.734375 9.671875 29.6875 9.671875 
Q 34.421875 9.671875 37.734375 13.6875 
Q 41.0625 17.71875 41.0625 25.734375 
Q 41.0625 34.671875 37.84375 38.59375 
Q 34.625 42.53125 29.59375 42.53125 
Q 24.703125 42.53125 21.40625 38.640625 
Q 18.109375 34.765625 18.109375 27.046875 
z
" id="Arial-BoldMT-100"/>
     <path d="M 2.34375 14.796875 
L 16.109375 16.890625 
Q 17 12.890625 19.671875 10.8125 
Q 22.359375 8.734375 27.203125 8.734375 
Q 32.515625 8.734375 35.203125 10.6875 
Q 37.015625 12.0625 37.015625 14.359375 
Q 37.015625 15.921875 36.03125 16.9375 
Q 35.015625 17.921875 31.453125 18.75 
Q 14.84375 22.40625 10.40625 25.4375 
Q 4.25 29.640625 4.25 37.109375 
Q 4.25 43.84375 9.5625 48.4375 
Q 14.890625 53.03125 26.078125 53.03125 
Q 36.71875 53.03125 41.890625 49.5625 
Q 47.078125 46.09375 49.03125 39.3125 
L 36.078125 36.921875 
Q 35.25 39.9375 32.921875 41.546875 
Q 30.609375 43.171875 26.3125 43.171875 
Q 20.90625 43.171875 18.5625 41.65625 
Q 17 40.578125 17 38.875 
Q 17 37.40625 18.359375 36.375 
Q 20.21875 35.015625 31.171875 32.515625 
Q 42.140625 30.03125 46.484375 26.421875 
Q 50.78125 22.75 50.78125 16.21875 
Q 50.78125 9.078125 44.828125 3.953125 
Q 38.875 -1.171875 27.203125 -1.171875 
Q 16.609375 -1.171875 10.421875 3.125 
Q 4.25 7.421875 2.34375 14.796875 
z
" id="Arial-BoldMT-115"/>
     <path d="M 6.78125 51.859375 
L 19.578125 51.859375 
L 19.578125 44.234375 
Q 22.078125 48.140625 26.3125 50.578125 
Q 30.5625 53.03125 35.75 53.03125 
Q 44.78125 53.03125 51.078125 45.953125 
Q 57.375 38.875 57.375 26.21875 
Q 57.375 13.234375 51.015625 6.03125 
Q 44.671875 -1.171875 35.640625 -1.171875 
Q 31.34375 -1.171875 27.84375 0.53125 
Q 24.359375 2.25 20.515625 6.390625 
L 20.515625 -19.734375 
L 6.78125 -19.734375 
z
M 20.359375 26.8125 
Q 20.359375 18.0625 23.828125 13.890625 
Q 27.296875 9.71875 32.28125 9.71875 
Q 37.0625 9.71875 40.234375 13.546875 
Q 43.40625 17.390625 43.40625 26.125 
Q 43.40625 34.28125 40.125 38.234375 
Q 36.859375 42.1875 32.03125 42.1875 
Q 27 42.1875 23.671875 38.296875 
Q 20.359375 34.421875 20.359375 26.8125 
z
" id="Arial-BoldMT-112"/>
     <path d="M 6.6875 0 
L 6.6875 71.578125 
L 20.40625 71.578125 
L 20.40625 33.59375 
L 36.46875 51.859375 
L 53.375 51.859375 
L 35.640625 32.90625 
L 54.640625 0 
L 39.84375 0 
L 26.8125 23.296875 
L 20.40625 16.609375 
L 20.40625 0 
z
" id="Arial-BoldMT-107"/>
    </defs>
    <g style="opacity:0.4;" transform="translate(57.681818 7.696732)scale(0.1 -0.1)">
     <use xlink:href="#Arial-BoldMT-68"/>
     <use x="72.216797" xlink:href="#Arial-BoldMT-101"/>
     <use x="127.832031" xlink:href="#Arial-BoldMT-99"/>
     <use x="183.447266" xlink:href="#Arial-BoldMT-111"/>
     <use x="244.53125" xlink:href="#Arial-BoldMT-110"/>
     <use x="305.615234" xlink:href="#Arial-BoldMT-118"/>
     <use x="361.230469" xlink:href="#Arial-BoldMT-111"/>
     <use x="422.314453" xlink:href="#Arial-BoldMT-108"/>
     <use x="450.097656" xlink:href="#Arial-BoldMT-118"/>
     <use x="505.712891" xlink:href="#Arial-BoldMT-101"/>
     <use x="561.328125" xlink:href="#Arial-BoldMT-100"/>
     <use x="622.412109" xlink:href="#Arial-BoldMT-32"/>
     <use x="650.195312" xlink:href="#Arial-BoldMT-115"/>
     <use x="705.810547" xlink:href="#Arial-BoldMT-112"/>
     <use x="766.894531" xlink:href="#Arial-BoldMT-105"/>
     <use x="794.677734" xlink:href="#Arial-BoldMT-107"/>
     <use x="850.292969" xlink:href="#Arial-BoldMT-101"/>
     <use x="905.908203" xlink:href="#Arial-BoldMT-32"/>
     <use x="933.691406" xlink:href="#Arial-BoldMT-116"/>
     <use x="966.992188" xlink:href="#Arial-BoldMT-114"/>
     <use x="1005.908203" xlink:href="#Arial-BoldMT-97"/>
     <use x="1061.523438" xlink:href="#Arial-BoldMT-99"/>
     <use x="1117.138672" xlink:href="#Arial-BoldMT-101"/>
    </g>
   </g>
  </g>
 </g>
 <defs>
  <clipPath id="pe5442e04c9">
   <rect height="108.72" width="279" x="45" y="17.28"/>
  </clipPath>
 </defs>
</svg>
