<?xml version="1.0" encoding="utf-8" standalone="no"?>
<!DOCTYPE svg PUBLIC "-//W3C//DTD SVG 1.1//EN"
  "http://www.w3.org/Graphics/SVG/1.1/DTD/svg11.dtd">
<!-- Created with matplotlib (https://matplotlib.org/) -->
<svg height="144pt" version="1.1" viewBox="0 0 360 144" width="360pt" xmlns="http://www.w3.org/2000/svg" xmlns:xlink="http://www.w3.org/1999/xlink">
 <defs>
  <style type="text/css">
*{stroke-linecap:butt;stroke-linejoin:round;}
  </style>
 </defs>
 <g id="figure_1">
  <g id="patch_1">
   <path d="M 0 144 
L 360 144 
L 360 0 
L 0 0 
z
" style="fill:#ffffff;"/>
  </g>
  <g id="axes_1">
   <g id="patch_2">
    <path d="M 45 126 
L 324 126 
L 324 17.28 
L 45 17.28 
z
" style="fill:#ffffff;"/>
   </g>
   <g id="matplotlib.axis_1"/>
   <g id="matplotlib.axis_2"/>
   <g id="line2d_1">
    <path clip-path="url(#p946323826a)" d="M 57.681818 119.055723 
L 76.800137 119.055723 
L 78.074692 22.221818 
L 79.349246 22.221818 
L 80.623801 119.055723 
L 108.664002 119.055723 
L 109.938556 22.221818 
L 111.213111 22.221818 
L 112.487666 119.055723 
L 116.311329 119.055723 
L 117.585884 22.221818 
L 118.860439 22.221818 
L 120.134993 119.055723 
L 157.097076 119.055723 
L 158.371631 22.221818 
L 163.469849 22.221818 
L 164.744404 119.055723 
L 168.568068 119.055723 
L 169.842622 22.221818 
L 171.117177 22.221818 
L 172.391731 119.055723 
L 187.686386 119.055723 
L 188.960941 22.221818 
L 190.235496 22.221818 
L 191.51005 119.055723 
L 213.177478 119.055723 
L 214.452033 22.221818 
L 219.550251 22.221818 
L 220.824806 119.055723 
L 225.923024 119.055723 
L 227.197579 22.221818 
L 228.472133 22.221818 
L 229.746688 119.055723 
L 233.570352 119.055723 
L 234.844906 22.221818 
L 236.119461 119.055723 
L 239.943125 119.055723 
L 241.217679 22.221818 
L 246.315898 22.221818 
L 247.590452 119.055723 
L 273.081544 119.055723 
L 274.356099 22.221818 
L 275.630653 119.055723 
L 284.552535 119.055723 
L 285.82709 22.221818 
L 287.101645 22.221818 
L 288.376199 119.055723 
L 296.023527 119.055723 
L 297.298081 22.221818 
L 298.572636 22.221818 
L 299.84719 119.055723 
L 311.318182 119.055723 
L 311.318182 119.055723 
" style="fill:none;stroke:#000000;stroke-linecap:square;stroke-opacity:0.4;stroke-width:3;"/>
   </g>
   <g id="line2d_2">
    <path clip-path="url(#p946323826a)" d="M 57.681818 112.111126 
L 58.956373 112.125077 
L 60.230927 111.810458 
L 61.505482 112.031064 
L 62.780037 111.130631 
L 64.054591 109.487429 
L 65.329146 113.1664 
L 66.6037 116.124917 
L 67.878255 115.194269 
L 69.15281 114.096334 
L 70.427364 117.032914 
L 71.701919 119.342982 
L 72.976473 119.430067 
L 74.251028 118.683388 
L 75.525582 120.132361 
L 76.800137 106.745589 
L 78.074692 99.585182 
L 79.349246 94.27795 
L 80.623801 92.907867 
L 81.898355 93.213299 
L 83.17291 92.717018 
L 84.447465 100.44382 
L 85.722019 98.2578 
L 86.996574 101.591941 
L 89.545683 106.3788 
L 90.820238 105.658858 
L 92.094792 106.997112 
L 93.369347 107.434525 
L 94.643901 108.056074 
L 95.918456 109.770461 
L 97.193011 110.972154 
L 98.467565 112.818651 
L 99.74212 113.027184 
L 101.016674 114.974466 
L 103.565783 112.621241 
L 104.840338 113.951387 
L 106.114893 112.933205 
L 107.389447 113.904024 
L 108.664002 113.345247 
L 109.938556 106.904266 
L 111.213111 105.233379 
L 112.487666 104.294082 
L 113.76222 105.997409 
L 115.036775 108.451321 
L 116.311329 104.763407 
L 118.860439 98.136752 
L 120.134993 93.313768 
L 121.409548 95.222414 
L 122.684102 96.620542 
L 123.958657 100.723911 
L 125.233212 101.493794 
L 126.507766 104.680629 
L 127.782321 104.261473 
L 129.056875 107.833466 
L 130.33143 107.407577 
L 131.605984 108.218934 
L 132.880539 112.261332 
L 134.155094 112.04683 
L 135.429648 111.086296 
L 136.704203 111.287891 
L 137.978757 112.363171 
L 139.253312 110.608415 
L 140.527867 116.149926 
L 141.802421 112.94429 
L 143.076976 115.634187 
L 144.35153 116.697499 
L 145.626085 118.690659 
L 146.90064 118.407832 
L 148.175194 119.568152 
L 149.449749 117.008801 
L 150.724303 118.58629 
L 153.273413 119.593734 
L 154.547967 121.058182 
L 155.822522 120.256019 
L 157.097076 112.909233 
L 158.371631 94.810464 
L 159.646185 80.330189 
L 160.92074 71.152148 
L 162.195295 71.320645 
L 163.469849 69.399103 
L 164.744404 74.196284 
L 166.018958 75.049138 
L 167.293513 79.10994 
L 168.568068 78.189418 
L 169.842622 77.897673 
L 171.117177 79.083326 
L 172.391731 81.877284 
L 173.666286 82.127939 
L 174.940841 85.404178 
L 176.215395 84.020808 
L 177.48995 87.63971 
L 178.764504 90.920073 
L 180.039059 91.343208 
L 181.313614 93.673613 
L 182.588168 95.417546 
L 183.862723 100.777721 
L 185.137277 100.954216 
L 186.411832 106.676271 
L 187.686386 96.704683 
L 190.235496 87.93735 
L 191.51005 88.616533 
L 192.784605 92.503691 
L 194.059159 95.280385 
L 195.333714 95.019727 
L 196.608269 94.045626 
L 197.882823 97.384194 
L 199.157378 98.145277 
L 200.431932 100.540494 
L 201.706487 102.047553 
L 202.981042 106.407777 
L 204.255596 103.246939 
L 205.530151 106.938253 
L 206.804705 107.1037 
L 210.628369 113.423258 
L 211.902924 112.534115 
L 213.177478 108.368339 
L 214.452033 100.852762 
L 215.726587 85.604995 
L 217.001142 83.199699 
L 218.275697 81.847115 
L 219.550251 78.623742 
L 220.824806 81.196809 
L 222.09936 87.457291 
L 223.373915 86.537395 
L 225.923024 91.368904 
L 227.197579 83.971685 
L 228.472133 74.743244 
L 229.746688 75.514174 
L 231.021243 74.896095 
L 232.295797 91.288971 
L 233.570352 83.958101 
L 234.844906 77.509064 
L 236.119461 83.902802 
L 237.394016 86.745672 
L 238.66857 90.784523 
L 239.943125 90.396714 
L 241.217679 71.645947 
L 242.492234 48.554252 
L 243.766788 42.161923 
L 246.315898 42.110364 
L 248.865007 55.853433 
L 250.139561 56.208811 
L 251.414116 58.835651 
L 252.688671 62.048801 
L 253.963225 65.716362 
L 255.23778 79.613127 
L 256.512334 75.584832 
L 257.786889 80.134137 
L 259.061444 88.771178 
L 260.335998 87.184769 
L 261.610553 89.481043 
L 262.885107 93.762291 
L 264.159662 97.079616 
L 265.434217 98.869339 
L 266.708771 105.159527 
L 267.983326 104.469349 
L 269.25788 105.956134 
L 270.532435 106.739725 
L 271.806989 103.218929 
L 273.081544 99.092281 
L 274.356099 94.197241 
L 275.630653 97.020159 
L 276.905208 100.394505 
L 278.179762 98.354064 
L 279.454317 101.360494 
L 280.728872 102.803609 
L 282.003426 104.566878 
L 283.277981 108.952445 
L 284.552535 105.001147 
L 285.82709 98.172553 
L 287.101645 96.052756 
L 288.376199 96.15058 
L 289.650754 97.45584 
L 290.925308 96.179823 
L 292.199863 98.104422 
L 293.474418 101.666533 
L 294.748972 102.320694 
L 296.023527 104.863263 
L 297.298081 96.610522 
L 298.572636 91.907212 
L 299.84719 97.746918 
L 301.121745 99.047809 
L 302.3963 100.70174 
L 303.670854 99.449733 
L 304.945409 103.647501 
L 306.219963 107.232207 
L 307.494518 108.086383 
L 308.769073 109.955066 
L 310.043627 110.747174 
L 311.318182 112.467674 
L 311.318182 112.467674 
" style="fill:none;stroke:#000000;stroke-linecap:square;stroke-width:3;"/>
   </g>
   <g id="text_1">
    <!-- $\Delta$F/F calcium trace -->
    <defs>
     <path d="M 34.1875 63.1875 
L 14.15625 8.203125 
L 54.25 8.203125 
z
M 0.78125 0 
L 28.609375 72.90625 
L 39.796875 72.90625 
L 67.578125 0 
z
" id="DejaVuSans-916"/>
     <path d="M 9.1875 72.90625 
L 59.90625 72.90625 
L 59.90625 58.6875 
L 27.984375 58.6875 
L 27.984375 45.125 
L 58.015625 45.125 
L 58.015625 30.90625 
L 27.984375 30.90625 
L 27.984375 0 
L 9.1875 0 
z
" id="DejaVuSans-Bold-70"/>
     <path d="M 25.6875 72.90625 
L 36.53125 72.90625 
L 10.796875 -9.28125 
L 0 -9.28125 
z
" id="DejaVuSans-Bold-47"/>
     <path id="DejaVuSans-Bold-32"/>
     <path d="M 52.59375 52.984375 
L 52.59375 38.71875 
Q 49.03125 41.15625 45.4375 42.328125 
Q 41.84375 43.5 37.984375 43.5 
Q 30.671875 43.5 26.59375 39.234375 
Q 22.515625 34.96875 22.515625 27.296875 
Q 22.515625 19.625 26.59375 15.34375 
Q 30.671875 11.078125 37.984375 11.078125 
Q 42.09375 11.078125 45.78125 12.296875 
Q 49.46875 13.53125 52.59375 15.921875 
L 52.59375 1.609375 
Q 48.484375 0.09375 44.265625 -0.65625 
Q 40.046875 -1.421875 35.796875 -1.421875 
Q 21 -1.421875 12.640625 6.171875 
Q 4.296875 13.765625 4.296875 27.296875 
Q 4.296875 40.828125 12.640625 48.40625 
Q 21 56 35.796875 56 
Q 40.09375 56 44.265625 55.25 
Q 48.4375 54.5 52.59375 52.984375 
z
" id="DejaVuSans-Bold-99"/>
     <path d="M 32.90625 24.609375 
Q 27.4375 24.609375 24.671875 22.75 
Q 21.921875 20.90625 21.921875 17.28125 
Q 21.921875 13.96875 24.140625 12.078125 
Q 26.375 10.203125 30.328125 10.203125 
Q 35.25 10.203125 38.625 13.734375 
Q 42 17.28125 42 22.609375 
L 42 24.609375 
z
M 59.625 31.203125 
L 59.625 0 
L 42 0 
L 42 8.109375 
Q 38.484375 3.125 34.078125 0.84375 
Q 29.6875 -1.421875 23.390625 -1.421875 
Q 14.890625 -1.421875 9.59375 3.53125 
Q 4.296875 8.5 4.296875 16.40625 
Q 4.296875 26.03125 10.90625 30.515625 
Q 17.53125 35.015625 31.6875 35.015625 
L 42 35.015625 
L 42 36.375 
Q 42 40.53125 38.71875 42.453125 
Q 35.453125 44.390625 28.515625 44.390625 
Q 22.90625 44.390625 18.0625 43.265625 
Q 13.234375 42.140625 9.078125 39.890625 
L 9.078125 53.21875 
Q 14.703125 54.59375 20.359375 55.296875 
Q 26.03125 56 31.6875 56 
Q 46.484375 56 53.046875 50.171875 
Q 59.625 44.34375 59.625 31.203125 
z
" id="DejaVuSans-Bold-97"/>
     <path d="M 8.40625 75.984375 
L 25.875 75.984375 
L 25.875 0 
L 8.40625 0 
z
" id="DejaVuSans-Bold-108"/>
     <path d="M 8.40625 54.6875 
L 25.875 54.6875 
L 25.875 0 
L 8.40625 0 
z
M 8.40625 75.984375 
L 25.875 75.984375 
L 25.875 61.71875 
L 8.40625 61.71875 
z
" id="DejaVuSans-Bold-105"/>
     <path d="M 7.8125 21.296875 
L 7.8125 54.6875 
L 25.390625 54.6875 
L 25.390625 49.21875 
Q 25.390625 44.78125 25.34375 38.0625 
Q 25.296875 31.34375 25.296875 29.109375 
Q 25.296875 22.515625 25.640625 19.609375 
Q 25.984375 16.703125 26.8125 15.375 
Q 27.875 13.671875 29.609375 12.734375 
Q 31.34375 11.8125 33.59375 11.8125 
Q 39.0625 11.8125 42.1875 16.015625 
Q 45.3125 20.21875 45.3125 27.6875 
L 45.3125 54.6875 
L 62.796875 54.6875 
L 62.796875 0 
L 45.3125 0 
L 45.3125 7.90625 
Q 41.359375 3.125 36.9375 0.84375 
Q 32.515625 -1.421875 27.203125 -1.421875 
Q 17.71875 -1.421875 12.765625 4.390625 
Q 7.8125 10.203125 7.8125 21.296875 
z
" id="DejaVuSans-Bold-117"/>
     <path d="M 59.078125 45.609375 
Q 62.40625 50.6875 66.96875 53.34375 
Q 71.53125 56 77 56 
Q 86.421875 56 91.359375 50.1875 
Q 96.296875 44.390625 96.296875 33.296875 
L 96.296875 0 
L 78.71875 0 
L 78.71875 28.515625 
Q 78.765625 29.15625 78.78125 29.828125 
Q 78.8125 30.515625 78.8125 31.78125 
Q 78.8125 37.59375 77.09375 40.203125 
Q 75.390625 42.828125 71.578125 42.828125 
Q 66.609375 42.828125 63.890625 38.71875 
Q 61.1875 34.625 61.078125 26.859375 
L 61.078125 0 
L 43.5 0 
L 43.5 28.515625 
Q 43.5 37.59375 41.9375 40.203125 
Q 40.375 42.828125 36.375 42.828125 
Q 31.34375 42.828125 28.609375 38.703125 
Q 25.875 34.578125 25.875 26.90625 
L 25.875 0 
L 8.296875 0 
L 8.296875 54.6875 
L 25.875 54.6875 
L 25.875 46.6875 
Q 29.109375 51.3125 33.28125 53.65625 
Q 37.453125 56 42.484375 56 
Q 48.140625 56 52.484375 53.265625 
Q 56.84375 50.53125 59.078125 45.609375 
z
" id="DejaVuSans-Bold-109"/>
     <path d="M 27.484375 70.21875 
L 27.484375 54.6875 
L 45.515625 54.6875 
L 45.515625 42.1875 
L 27.484375 42.1875 
L 27.484375 19 
Q 27.484375 15.1875 29 13.84375 
Q 30.515625 12.5 35.015625 12.5 
L 44 12.5 
L 44 0 
L 29 0 
Q 18.65625 0 14.328125 4.3125 
Q 10.015625 8.640625 10.015625 19 
L 10.015625 42.1875 
L 1.3125 42.1875 
L 1.3125 54.6875 
L 10.015625 54.6875 
L 10.015625 70.21875 
z
" id="DejaVuSans-Bold-116"/>
     <path d="M 49.03125 39.796875 
Q 46.734375 40.875 44.453125 41.375 
Q 42.1875 41.890625 39.890625 41.890625 
Q 33.15625 41.890625 29.515625 37.5625 
Q 25.875 33.25 25.875 25.203125 
L 25.875 0 
L 8.40625 0 
L 8.40625 54.6875 
L 25.875 54.6875 
L 25.875 45.703125 
Q 29.25 51.078125 33.609375 53.53125 
Q 37.984375 56 44.09375 56 
Q 44.96875 56 45.984375 55.921875 
Q 47.015625 55.859375 48.96875 55.609375 
z
" id="DejaVuSans-Bold-114"/>
     <path d="M 62.984375 27.484375 
L 62.984375 22.515625 
L 22.125 22.515625 
Q 22.75 16.359375 26.5625 13.28125 
Q 30.375 10.203125 37.203125 10.203125 
Q 42.71875 10.203125 48.5 11.84375 
Q 54.296875 13.484375 60.40625 16.796875 
L 60.40625 3.328125 
Q 54.203125 0.984375 48 -0.21875 
Q 41.796875 -1.421875 35.59375 -1.421875 
Q 20.75 -1.421875 12.515625 6.125 
Q 4.296875 13.671875 4.296875 27.296875 
Q 4.296875 40.671875 12.375 48.328125 
Q 20.453125 56 34.625 56 
Q 47.515625 56 55.25 48.234375 
Q 62.984375 40.484375 62.984375 27.484375 
z
M 45.015625 33.296875 
Q 45.015625 38.28125 42.109375 41.328125 
Q 39.203125 44.390625 34.515625 44.390625 
Q 29.4375 44.390625 26.265625 41.53125 
Q 23.09375 38.671875 22.3125 33.296875 
z
" id="DejaVuSans-Bold-101"/>
    </defs>
    <g transform="translate(57.681818 -11.670049)scale(0.14 -0.14)">
     <use transform="translate(0 0.015625)" xlink:href="#DejaVuSans-916"/>
     <use transform="translate(68.408203 0.015625)" xlink:href="#DejaVuSans-Bold-70"/>
     <use transform="translate(136.71875 0.015625)" xlink:href="#DejaVuSans-Bold-47"/>
     <use transform="translate(173.242188 0.015625)" xlink:href="#DejaVuSans-Bold-70"/>
     <use transform="translate(241.552734 0.015625)" xlink:href="#DejaVuSans-Bold-32"/>
     <use transform="translate(276.367188 0.015625)" xlink:href="#DejaVuSans-Bold-99"/>
     <use transform="translate(335.644531 0.015625)" xlink:href="#DejaVuSans-Bold-97"/>
     <use transform="translate(403.125 0.015625)" xlink:href="#DejaVuSans-Bold-108"/>
     <use transform="translate(437.402344 0.015625)" xlink:href="#DejaVuSans-Bold-99"/>
     <use transform="translate(496.679688 0.015625)" xlink:href="#DejaVuSans-Bold-105"/>
     <use transform="translate(530.957031 0.015625)" xlink:href="#DejaVuSans-Bold-117"/>
     <use transform="translate(602.148438 0.015625)" xlink:href="#DejaVuSans-Bold-109"/>
     <use transform="translate(706.347656 0.015625)" xlink:href="#DejaVuSans-Bold-32"/>
     <use transform="translate(741.162109 0.015625)" xlink:href="#DejaVuSans-Bold-116"/>
     <use transform="translate(788.964844 0.015625)" xlink:href="#DejaVuSans-Bold-114"/>
     <use transform="translate(838.28125 0.015625)" xlink:href="#DejaVuSans-Bold-97"/>
     <use transform="translate(905.761719 0.015625)" xlink:href="#DejaVuSans-Bold-99"/>
     <use transform="translate(965.039062 0.015625)" xlink:href="#DejaVuSans-Bold-101"/>
    </g>
   </g>
   <g id="text_2">
    <!-- Deconvolved spike trace -->
    <defs>
     <path d="M 27.984375 58.6875 
L 27.984375 14.203125 
L 34.71875 14.203125 
Q 46.234375 14.203125 52.3125 19.921875 
Q 58.40625 25.640625 58.40625 36.53125 
Q 58.40625 47.359375 52.34375 53.015625 
Q 46.296875 58.6875 34.71875 58.6875 
z
M 9.1875 72.90625 
L 29 72.90625 
Q 45.609375 72.90625 53.734375 70.53125 
Q 61.859375 68.171875 67.671875 62.5 
Q 72.796875 57.5625 75.28125 51.109375 
Q 77.78125 44.671875 77.78125 36.53125 
Q 77.78125 28.265625 75.28125 21.796875 
Q 72.796875 15.328125 67.671875 10.40625 
Q 61.8125 4.734375 53.609375 2.359375 
Q 45.40625 0 29 0 
L 9.1875 0 
z
" id="DejaVuSans-Bold-68"/>
     <path d="M 34.421875 43.5 
Q 28.609375 43.5 25.5625 39.328125 
Q 22.515625 35.15625 22.515625 27.296875 
Q 22.515625 19.4375 25.5625 15.25 
Q 28.609375 11.078125 34.421875 11.078125 
Q 40.140625 11.078125 43.15625 15.25 
Q 46.1875 19.4375 46.1875 27.296875 
Q 46.1875 35.15625 43.15625 39.328125 
Q 40.140625 43.5 34.421875 43.5 
z
M 34.421875 56 
Q 48.53125 56 56.46875 48.375 
Q 64.40625 40.765625 64.40625 27.296875 
Q 64.40625 13.8125 56.46875 6.1875 
Q 48.53125 -1.421875 34.421875 -1.421875 
Q 20.265625 -1.421875 12.28125 6.1875 
Q 4.296875 13.8125 4.296875 27.296875 
Q 4.296875 40.765625 12.28125 48.375 
Q 20.265625 56 34.421875 56 
z
" id="DejaVuSans-Bold-111"/>
     <path d="M 63.375 33.296875 
L 63.375 0 
L 45.796875 0 
L 45.796875 5.421875 
L 45.796875 25.484375 
Q 45.796875 32.5625 45.484375 35.25 
Q 45.171875 37.9375 44.390625 39.203125 
Q 43.359375 40.921875 41.59375 41.875 
Q 39.84375 42.828125 37.59375 42.828125 
Q 32.125 42.828125 29 38.59375 
Q 25.875 34.375 25.875 26.90625 
L 25.875 0 
L 8.40625 0 
L 8.40625 54.6875 
L 25.875 54.6875 
L 25.875 46.6875 
Q 29.828125 51.46875 34.265625 53.734375 
Q 38.71875 56 44.09375 56 
Q 53.5625 56 58.46875 50.1875 
Q 63.375 44.390625 63.375 33.296875 
z
" id="DejaVuSans-Bold-110"/>
     <path d="M 1.515625 54.6875 
L 19 54.6875 
L 32.625 16.890625 
L 46.1875 54.6875 
L 63.71875 54.6875 
L 42.1875 0 
L 23 0 
z
" id="DejaVuSans-Bold-118"/>
     <path d="M 45.609375 46.6875 
L 45.609375 75.984375 
L 63.1875 75.984375 
L 63.1875 0 
L 45.609375 0 
L 45.609375 7.90625 
Q 42 3.078125 37.640625 0.828125 
Q 33.296875 -1.421875 27.59375 -1.421875 
Q 17.484375 -1.421875 10.984375 6.609375 
Q 4.5 14.65625 4.5 27.296875 
Q 4.5 39.9375 10.984375 47.96875 
Q 17.484375 56 27.59375 56 
Q 33.25 56 37.625 53.734375 
Q 42 51.46875 45.609375 46.6875 
z
M 34.078125 11.28125 
Q 39.703125 11.28125 42.65625 15.375 
Q 45.609375 19.484375 45.609375 27.296875 
Q 45.609375 35.109375 42.65625 39.203125 
Q 39.703125 43.3125 34.078125 43.3125 
Q 28.515625 43.3125 25.5625 39.203125 
Q 22.609375 35.109375 22.609375 27.296875 
Q 22.609375 19.484375 25.5625 15.375 
Q 28.515625 11.28125 34.078125 11.28125 
z
" id="DejaVuSans-Bold-100"/>
     <path d="M 51.125 52.984375 
L 51.125 39.703125 
Q 45.515625 42.046875 40.28125 43.21875 
Q 35.0625 44.390625 30.421875 44.390625 
Q 25.4375 44.390625 23.015625 43.140625 
Q 20.609375 41.890625 20.609375 39.3125 
Q 20.609375 37.203125 22.4375 36.078125 
Q 24.265625 34.96875 29 34.421875 
L 32.078125 33.984375 
Q 45.515625 32.28125 50.140625 28.375 
Q 54.78125 24.46875 54.78125 16.109375 
Q 54.78125 7.375 48.328125 2.96875 
Q 41.890625 -1.421875 29.109375 -1.421875 
Q 23.6875 -1.421875 17.890625 -0.5625 
Q 12.109375 0.296875 6 2 
L 6 15.28125 
Q 11.234375 12.75 16.71875 11.46875 
Q 22.21875 10.203125 27.875 10.203125 
Q 33.015625 10.203125 35.59375 11.609375 
Q 38.1875 13.03125 38.1875 15.828125 
Q 38.1875 18.171875 36.40625 19.3125 
Q 34.625 20.453125 29.296875 21.09375 
L 26.21875 21.484375 
Q 14.546875 22.953125 9.859375 26.90625 
Q 5.171875 30.859375 5.171875 38.921875 
Q 5.171875 47.609375 11.125 51.796875 
Q 17.09375 56 29.390625 56 
Q 34.234375 56 39.546875 55.265625 
Q 44.875 54.546875 51.125 52.984375 
z
" id="DejaVuSans-Bold-115"/>
     <path d="M 25.875 7.90625 
L 25.875 -20.796875 
L 8.40625 -20.796875 
L 8.40625 54.6875 
L 25.875 54.6875 
L 25.875 46.6875 
Q 29.5 51.46875 33.890625 53.734375 
Q 38.28125 56 44 56 
Q 54.109375 56 60.59375 47.96875 
Q 67.09375 39.9375 67.09375 27.296875 
Q 67.09375 14.65625 60.59375 6.609375 
Q 54.109375 -1.421875 44 -1.421875 
Q 38.28125 -1.421875 33.890625 0.84375 
Q 29.5 3.125 25.875 7.90625 
z
M 37.5 43.3125 
Q 31.890625 43.3125 28.875 39.1875 
Q 25.875 35.0625 25.875 27.296875 
Q 25.875 19.53125 28.875 15.40625 
Q 31.890625 11.28125 37.5 11.28125 
Q 43.109375 11.28125 46.0625 15.375 
Q 49.03125 19.484375 49.03125 27.296875 
Q 49.03125 35.109375 46.0625 39.203125 
Q 43.109375 43.3125 37.5 43.3125 
z
" id="DejaVuSans-Bold-112"/>
     <path d="M 8.40625 75.984375 
L 25.875 75.984375 
L 25.875 34.625 
L 46 54.6875 
L 66.3125 54.6875 
L 39.59375 29.59375 
L 68.40625 0 
L 47.21875 0 
L 25.875 22.796875 
L 25.875 0 
L 8.40625 0 
z
" id="DejaVuSans-Bold-107"/>
    </defs>
    <g style="opacity:0.4;" transform="translate(57.681818 7.696732)scale(0.14 -0.14)">
     <use xlink:href="#DejaVuSans-Bold-68"/>
     <use x="83.007812" xlink:href="#DejaVuSans-Bold-101"/>
     <use x="150.830078" xlink:href="#DejaVuSans-Bold-99"/>
     <use x="210.107422" xlink:href="#DejaVuSans-Bold-111"/>
     <use x="278.808594" xlink:href="#DejaVuSans-Bold-110"/>
     <use x="350" xlink:href="#DejaVuSans-Bold-118"/>
     <use x="415.185547" xlink:href="#DejaVuSans-Bold-111"/>
     <use x="483.886719" xlink:href="#DejaVuSans-Bold-108"/>
     <use x="518.164062" xlink:href="#DejaVuSans-Bold-118"/>
     <use x="583.349609" xlink:href="#DejaVuSans-Bold-101"/>
     <use x="651.171875" xlink:href="#DejaVuSans-Bold-100"/>
     <use x="722.753906" xlink:href="#DejaVuSans-Bold-32"/>
     <use x="757.568359" xlink:href="#DejaVuSans-Bold-115"/>
     <use x="817.089844" xlink:href="#DejaVuSans-Bold-112"/>
     <use x="888.671875" xlink:href="#DejaVuSans-Bold-105"/>
     <use x="922.949219" xlink:href="#DejaVuSans-Bold-107"/>
     <use x="989.421875" xlink:href="#DejaVuSans-Bold-101"/>
     <use x="1057.244141" xlink:href="#DejaVuSans-Bold-32"/>
     <use x="1092.058594" xlink:href="#DejaVuSans-Bold-116"/>
     <use x="1139.861328" xlink:href="#DejaVuSans-Bold-114"/>
     <use x="1189.177734" xlink:href="#DejaVuSans-Bold-97"/>
     <use x="1256.658203" xlink:href="#DejaVuSans-Bold-99"/>
     <use x="1315.935547" xlink:href="#DejaVuSans-Bold-101"/>
    </g>
   </g>
  </g>
 </g>
 <defs>
  <clipPath id="p946323826a">
   <rect height="108.72" width="279" x="45" y="17.28"/>
  </clipPath>
 </defs>
</svg>
