<?xml version="1.0" encoding="utf-8" standalone="no"?>
<!DOCTYPE svg PUBLIC "-//W3C//DTD SVG 1.1//EN"
  "http://www.w3.org/Graphics/SVG/1.1/DTD/svg11.dtd">
<!-- Created with matplotlib (https://matplotlib.org/) -->
<svg height="216pt" version="1.1" viewBox="0 0 360 216" width="360pt" xmlns="http://www.w3.org/2000/svg" xmlns:xlink="http://www.w3.org/1999/xlink">
 <defs>
  <style type="text/css">
*{stroke-linecap:butt;stroke-linejoin:round;}
  </style>
 </defs>
 <g id="figure_1">
  <g id="patch_1">
   <path d="M 0 216 
L 360 216 
L 360 0 
L 0 0 
z
" style="fill:#ffffff;"/>
  </g>
  <g id="axes_1">
   <g id="patch_2">
    <path d="M 45 73.884706 
L 324 73.884706 
L 324 25.92 
L 45 25.92 
z
" style="fill:#ffffff;"/>
   </g>
   <g id="matplotlib.axis_1"/>
   <g id="matplotlib.axis_2"/>
   <g id="line2d_1">
    <path clip-path="url(#p3f124492aa)" d="M 57.681818 68.972351 
L 58.24671 70.126869 
L 58.811602 69.796243 
L 59.376493 69.631648 
L 59.941385 70.179459 
L 60.506277 70.962764 
L 61.071168 70.189176 
L 61.63606 69.216155 
L 62.765843 63.742725 
L 63.330735 56.635053 
L 63.895627 54.356153 
L 64.460518 49.205092 
L 65.02541 45.917795 
L 65.590302 50.502833 
L 66.155193 47.966535 
L 66.720085 46.310297 
L 67.284977 46.161021 
L 67.849868 50.799172 
L 68.41476 53.311835 
L 68.979652 54.122949 
L 69.544543 57.497529 
L 70.109435 54.213337 
L 70.674327 56.019714 
L 71.239218 65.303828 
L 71.80411 63.945918 
L 72.369002 66.018267 
L 72.933894 65.591358 
L 73.498785 62.904452 
L 74.063677 68.622578 
L 74.628569 68.394711 
L 75.19346 68.478562 
L 75.758352 68.360707 
L 76.323244 67.028313 
L 76.888135 70.189064 
L 77.453027 68.959607 
L 78.017919 68.797145 
L 78.58281 69.095666 
L 79.147702 70.673232 
L 79.712594 70.349885 
L 80.277485 67.824981 
L 80.842377 68.74905 
L 81.407269 68.279015 
L 82.537052 60.256172 
L 83.101944 51.280143 
L 83.666835 47.569252 
L 84.231727 50.067657 
L 84.796619 48.492002 
L 85.36151 49.49277 
L 85.926402 50.844347 
L 86.491294 49.468841 
L 87.056185 52.269658 
L 87.621077 52.254627 
L 88.185969 53.469671 
L 88.75086 55.691393 
L 89.315752 59.727171 
L 89.880644 57.710465 
L 90.445536 59.239236 
L 91.010427 61.645066 
L 91.575319 62.772548 
L 92.140211 66.295619 
L 92.705102 67.312329 
L 93.269994 68.889837 
L 93.834886 69.321103 
L 94.964669 68.08594 
L 95.529561 66.816046 
L 96.094452 62.055422 
L 96.659344 68.051895 
L 97.224236 66.549564 
L 97.789127 62.282509 
L 98.354019 59.8927 
L 98.918911 54.686964 
L 99.483802 59.031761 
L 100.048694 60.498901 
L 100.613586 57.515333 
L 101.178477 59.220262 
L 101.743369 63.339274 
L 102.308261 65.594449 
L 102.873152 67.149085 
L 103.438044 64.511159 
L 104.002936 64.509073 
L 104.567827 66.463948 
L 105.132719 59.39229 
L 105.697611 65.583163 
L 106.262503 66.568052 
L 106.827394 62.168932 
L 107.392286 64.489323 
L 107.957178 56.007997 
L 108.522069 49.549928 
L 109.651853 47.100168 
L 110.216744 40.00649 
L 110.781636 40.247236 
L 111.346528 40.040979 
L 112.476311 41.868076 
L 113.041203 47.926417 
L 113.606094 48.284 
L 114.170986 43.514627 
L 114.735878 40.774131 
L 115.300769 47.815878 
L 116.995444 56.504614 
L 117.560336 63.571844 
L 118.125228 62.687462 
L 118.690119 66.773986 
L 119.255011 65.742599 
L 119.819903 63.248337 
L 120.384794 62.799855 
L 121.514578 68.983363 
L 122.644361 68.408983 
L 123.209253 70.6293 
L 124.339036 70.189597 
L 124.903928 69.894614 
L 125.46882 69.355668 
L 126.033711 69.404327 
L 126.598603 69.299931 
L 127.163495 70.058931 
L 127.728386 70.465023 
L 128.293278 70.392284 
L 128.85817 69.550171 
L 129.423061 69.650901 
L 129.987953 70.506393 
L 130.552845 69.936651 
L 131.117736 69.718412 
L 131.682628 69.801612 
L 132.24752 70.263233 
L 132.812411 69.981462 
L 133.377303 70.797564 
L 133.942195 70.624813 
L 134.507086 70.152248 
L 135.071978 70.398086 
L 135.63687 70.492699 
L 136.201761 71.12908 
L 136.766653 70.477259 
L 137.331545 70.482491 
L 137.896437 70.807626 
L 138.461328 70.835192 
L 139.02622 70.705907 
L 139.591112 70.905432 
L 140.156003 68.900681 
L 140.720895 69.450813 
L 141.285787 69.551063 
L 141.850678 70.2946 
L 142.41557 69.716316 
L 142.980462 69.611898 
L 143.545353 68.794008 
L 144.110245 69.065859 
L 144.675137 69.947682 
L 145.80492 69.298476 
L 146.369812 69.250213 
L 147.499595 65.325884 
L 148.064487 60.79433 
L 149.759162 39.070233 
L 150.888945 45.862526 
L 151.453837 43.202392 
L 152.018728 42.612274 
L 152.58362 49.080545 
L 153.148512 46.969349 
L 153.713404 49.358749 
L 154.278295 51.03919 
L 154.843187 49.98504 
L 155.408079 48.656254 
L 155.97297 49.28326 
L 156.537862 48.413609 
L 157.102754 50.199494 
L 157.667645 49.62114 
L 158.232537 49.614034 
L 158.797429 53.169977 
L 159.36232 59.929682 
L 159.927212 56.419275 
L 160.492104 59.615024 
L 161.056995 55.797155 
L 161.621887 56.198937 
L 162.186779 61.702934 
L 162.75167 53.991307 
L 163.316562 55.401186 
L 163.881454 55.066939 
L 164.446345 54.998907 
L 165.011237 59.25314 
L 166.14102 45.088549 
L 166.705912 36.766493 
L 167.270804 34.450502 
L 167.835695 31.140077 
L 168.400587 32.125398 
L 168.965479 34.934788 
L 169.530371 30.226855 
L 170.095262 37.41835 
L 170.660154 40.339185 
L 171.225046 47.874282 
L 172.354829 52.288697 
L 172.919721 53.419327 
L 173.484612 54.899631 
L 174.049504 53.988911 
L 174.614396 51.720189 
L 175.179287 55.018361 
L 175.744179 50.842601 
L 176.309071 51.77562 
L 176.873962 56.551557 
L 177.438854 59.546518 
L 178.003746 57.45068 
L 178.568637 57.368735 
L 179.133529 59.250724 
L 179.698421 56.040559 
L 180.263312 57.33893 
L 180.828204 62.291431 
L 181.393096 61.256561 
L 181.957987 62.612087 
L 182.522879 64.437665 
L 183.087771 57.975141 
L 183.652662 63.639551 
L 184.217554 56.591247 
L 184.782446 58.006964 
L 185.347338 55.86248 
L 185.912229 52.308031 
L 187.042013 64.656081 
L 187.606904 64.281465 
L 188.736688 70.065437 
L 189.301579 70.671836 
L 189.866471 69.311362 
L 190.431363 70.577276 
L 191.561146 70.663686 
L 192.126038 70.720954 
L 192.690929 71.190737 
L 193.255821 70.46034 
L 193.820713 71.107937 
L 194.385604 71.012798 
L 194.950496 71.293968 
L 195.515388 71.252676 
L 196.080279 70.910465 
L 196.645171 70.883775 
L 197.210063 70.723402 
L 197.774954 70.405915 
L 198.339846 69.954892 
L 199.469629 70.49296 
L 200.034521 70.825696 
L 200.599413 70.083532 
L 201.164305 69.990746 
L 201.729196 71.042417 
L 202.294088 70.252002 
L 202.85898 70.100389 
L 203.423871 70.251036 
L 203.988763 69.62744 
L 204.553655 69.688655 
L 205.118546 63.81695 
L 205.683438 55.857203 
L 206.813221 49.501622 
L 207.378113 48.197212 
L 207.943005 50.615468 
L 208.507896 50.420422 
L 209.072788 54.086238 
L 209.63768 52.435335 
L 210.202571 55.14613 
L 210.767463 55.255147 
L 211.332355 59.493723 
L 211.897246 52.366331 
L 212.462138 53.139593 
L 213.02703 57.026151 
L 213.591921 53.879037 
L 214.156813 51.611884 
L 214.721705 48.534019 
L 215.286596 39.945663 
L 215.851488 40.547131 
L 216.41638 44.611307 
L 216.981272 39.086418 
L 217.546163 36.494125 
L 218.111055 36.586104 
L 218.675947 40.49662 
L 219.240838 48.163937 
L 219.80573 47.059632 
L 220.370622 47.150363 
L 220.935513 45.915647 
L 221.500405 52.544685 
L 222.065297 53.65042 
L 222.630188 58.239778 
L 223.19508 54.559741 
L 223.759972 62.624943 
L 224.324863 57.167472 
L 224.889755 54.995006 
L 225.454647 63.743784 
L 226.019538 60.428302 
L 226.58443 62.27336 
L 227.714213 67.185161 
L 228.279105 65.835695 
L 228.843997 65.514225 
L 229.408888 64.898931 
L 229.97378 63.406106 
L 230.538672 67.074354 
L 231.668455 59.1207 
L 232.233347 64.353325 
L 232.798239 62.815481 
L 233.36313 68.450573 
L 233.928022 64.953357 
L 234.492914 57.779049 
L 235.057805 61.172318 
L 235.622697 50.947929 
L 236.187589 45.773228 
L 236.75248 46.275886 
L 237.317372 45.561813 
L 237.882264 43.762169 
L 238.447155 42.451557 
L 239.012047 44.491241 
L 239.576939 47.0583 
L 240.14183 52.143599 
L 240.706722 52.266601 
L 241.271614 54.876731 
L 241.836505 59.480727 
L 242.401397 58.431216 
L 242.966289 59.18372 
L 243.53118 63.943942 
L 244.096072 63.65602 
L 244.660964 62.490836 
L 245.225855 67.010168 
L 245.790747 64.724475 
L 246.355639 64.159843 
L 246.92053 64.455227 
L 247.485422 68.17457 
L 248.050314 66.916931 
L 248.615206 67.578837 
L 249.180097 67.796526 
L 249.744989 70.054346 
L 250.309881 69.548053 
L 250.874772 69.460236 
L 251.439664 70.084114 
L 252.004556 69.793097 
L 253.134339 70.109498 
L 253.699231 70.04173 
L 254.829014 70.73663 
L 255.393906 70.48167 
L 256.523689 70.867291 
L 257.088581 70.424908 
L 257.653472 70.48763 
L 258.218364 70.708174 
L 258.783256 70.447783 
L 259.913039 70.607053 
L 260.477931 70.424796 
L 261.042822 70.902366 
L 261.607714 70.87636 
L 262.172606 70.556697 
L 262.737497 70.837922 
L 263.867281 70.320943 
L 264.432173 68.459496 
L 264.997064 69.377432 
L 265.561956 68.641456 
L 266.126848 67.293747 
L 266.691739 66.495611 
L 267.256631 66.007137 
L 267.821523 67.449198 
L 268.386414 67.177677 
L 268.951306 67.191219 
L 269.516198 55.769954 
L 270.081089 50.717235 
L 270.645981 48.115993 
L 271.210873 46.33572 
L 271.775764 38.895161 
L 272.340656 43.63527 
L 272.905548 47.329279 
L 273.470439 39.532154 
L 274.035331 45.926037 
L 275.165114 43.451433 
L 275.730006 35.45892 
L 276.294898 34.588307 
L 276.859789 33.292404 
L 277.424681 28.100214 
L 277.989573 29.999894 
L 278.554464 34.259919 
L 279.119356 33.672082 
L 279.684248 32.830821 
L 280.24914 35.937586 
L 280.814031 35.109128 
L 281.378923 34.558874 
L 281.943815 34.331709 
L 282.508706 34.933785 
L 283.073598 33.111962 
L 283.63849 32.008169 
L 284.203381 30.617152 
L 284.768273 33.481405 
L 285.333165 31.308005 
L 285.898056 30.630998 
L 286.462948 33.786749 
L 287.02784 33.282291 
L 287.592731 33.026452 
L 288.157623 41.207204 
L 288.722515 44.267954 
L 289.287406 42.994924 
L 289.852298 46.115274 
L 290.41719 47.59348 
L 290.982081 47.991532 
L 292.111865 53.377252 
L 292.676756 52.309838 
L 293.241648 56.353666 
L 293.80654 53.527918 
L 294.371431 52.880819 
L 294.936323 52.44026 
L 295.501215 55.342403 
L 296.066106 60.185541 
L 296.630998 53.729538 
L 297.19589 55.364885 
L 297.760782 63.847731 
L 298.325673 63.561644 
L 298.890565 65.415069 
L 299.455457 65.574527 
L 300.020348 66.988126 
L 300.58524 69.553855 
L 301.150132 68.605657 
L 301.715023 61.972816 
L 302.279915 50.319185 
L 302.844807 48.198092 
L 303.409698 56.91863 
L 303.97459 62.057063 
L 304.539482 63.205262 
L 305.669265 68.18641 
L 306.234157 69.466132 
L 306.799048 69.551571 
L 307.36394 70.241983 
L 307.928832 71.121129 
L 308.493723 71.480425 
L 309.058615 71.704492 
L 309.623507 71.513229 
L 310.188398 70.951876 
L 310.75329 70.787694 
L 311.318182 71.254144 
L 311.318182 71.254144 
" style="fill:none;stroke:#0b5eeb;stroke-linecap:square;stroke-width:3;"/>
   </g>
   <g id="patch_3">
    <path d="M 45 73.884706 
L 45 25.92 
" style="fill:none;stroke:#000000;stroke-linecap:square;stroke-linejoin:miter;stroke-width:0.8;"/>
   </g>
   <g id="patch_4">
    <path d="M 45 73.884706 
L 324 73.884706 
" style="fill:none;stroke:#000000;stroke-linecap:square;stroke-linejoin:miter;stroke-width:0.8;"/>
   </g>
  </g>
  <g id="axes_2">
   <g id="patch_5">
    <path d="M 45 131.442353 
L 324 131.442353 
L 324 83.477647 
L 45 83.477647 
z
" style="fill:#ffffff;"/>
   </g>
   <g id="matplotlib.axis_3"/>
   <g id="matplotlib.axis_4"/>
   <g id="line2d_2">
    <path clip-path="url(#p484f464991)" d="M 57.681818 103.613455 
L 58.24671 95.568656 
L 58.811602 93.664502 
L 59.376493 102.98124 
L 59.941385 106.367036 
L 60.506277 102.606062 
L 61.071168 95.228872 
L 61.63606 96.956931 
L 62.200952 97.899582 
L 62.765843 93.171295 
L 63.330735 90.828563 
L 63.895627 90.02737 
L 65.02541 93.82819 
L 65.590302 91.634752 
L 66.155193 96.28576 
L 66.720085 94.612395 
L 67.284977 96.067972 
L 67.849868 111.924325 
L 68.41476 102.743731 
L 68.979652 104.335136 
L 69.544543 97.357203 
L 70.109435 103.165032 
L 70.674327 97.19502 
L 71.239218 112.658471 
L 71.80411 108.856613 
L 72.369002 108.541816 
L 72.933894 101.938867 
L 73.498785 120.447829 
L 74.063677 103.739695 
L 74.628569 106.063355 
L 75.19346 108.967578 
L 75.758352 98.506557 
L 76.323244 107.026672 
L 76.888135 102.076091 
L 77.453027 121.854801 
L 78.017919 119.702038 
L 78.58281 118.675288 
L 79.147702 124.737676 
L 79.712594 123.873441 
L 80.277485 123.693303 
L 80.842377 124.306884 
L 81.407269 123.559818 
L 81.97216 125.604666 
L 82.537052 125.043173 
L 83.101944 124.788771 
L 83.666835 125.553878 
L 84.231727 125.196451 
L 84.796619 125.306303 
L 85.36151 125.10986 
L 85.926402 125.831203 
L 86.491294 125.052326 
L 87.056185 125.213902 
L 87.621077 126.241945 
L 88.185969 125.548121 
L 89.315752 124.685842 
L 89.880644 125.241686 
L 90.445536 124.200522 
L 91.010427 125.069554 
L 91.575319 124.492262 
L 92.140211 125.671065 
L 92.705102 125.061338 
L 93.269994 126.034045 
L 93.834886 125.69861 
L 94.399777 124.363786 
L 94.964669 126.211105 
L 95.529561 124.659566 
L 96.094452 127.900707 
L 97.224236 126.283166 
L 97.789127 124.075019 
L 98.354019 124.749043 
L 99.483802 122.221704 
L 100.048694 126.932374 
L 100.613586 129.262139 
L 101.178477 126.677007 
L 101.743369 129.03815 
L 102.308261 127.616478 
L 102.873152 128.322061 
L 103.438044 125.923377 
L 104.002936 125.149269 
L 104.567827 123.896773 
L 105.132719 121.155764 
L 105.697611 125.59798 
L 106.262503 120.859485 
L 106.827394 123.074815 
L 107.392286 122.494789 
L 107.957178 120.229727 
L 108.522069 124.195042 
L 109.086961 123.113178 
L 109.651853 121.622745 
L 110.216744 121.111859 
L 110.781636 124.476527 
L 111.346528 118.392583 
L 111.911419 123.791175 
L 112.476311 122.814737 
L 113.041203 124.448554 
L 113.606094 126.925897 
L 114.170986 125.152543 
L 114.735878 127.111719 
L 115.300769 123.272692 
L 115.865661 126.049379 
L 116.430553 108.89111 
L 116.995444 107.718771 
L 117.560336 105.307887 
L 118.125228 106.128859 
L 119.255011 113.783543 
L 119.819903 108.686448 
L 120.384794 108.936669 
L 120.949686 105.512944 
L 121.514578 97.763804 
L 122.07947 104.955836 
L 122.644361 103.756514 
L 123.209253 120.386352 
L 123.774145 103.959477 
L 124.339036 109.905985 
L 124.903928 101.957614 
L 125.46882 119.558094 
L 126.033711 121.531436 
L 126.598603 119.525749 
L 127.163495 121.588915 
L 127.728386 109.906084 
L 128.293278 106.610989 
L 128.85817 122.179107 
L 129.423061 120.73114 
L 129.987953 124.862025 
L 130.552845 108.202066 
L 131.117736 124.441186 
L 131.682628 121.518027 
L 132.812411 122.576072 
L 133.377303 120.993571 
L 133.942195 115.469128 
L 134.507086 114.492286 
L 135.071978 122.103332 
L 135.63687 121.579045 
L 136.201761 121.438023 
L 136.766653 123.061081 
L 137.331545 119.222027 
L 137.896437 124.91394 
L 138.461328 119.230154 
L 139.02622 123.940871 
L 139.591112 122.117526 
L 140.156003 119.254987 
L 140.720895 124.324813 
L 141.285787 121.794551 
L 141.850678 117.123661 
L 142.41557 123.934036 
L 142.980462 120.632394 
L 143.545353 124.17248 
L 144.110245 125.986471 
L 144.675137 123.549808 
L 145.240028 125.73192 
L 145.80492 126.141031 
L 146.369812 126.074819 
L 146.934703 125.716694 
L 147.499595 124.37591 
L 148.064487 125.880091 
L 148.629378 125.501397 
L 149.19427 125.72393 
L 149.759162 125.715208 
L 150.324053 125.199853 
L 150.888945 126.587053 
L 151.453837 125.904006 
L 152.018728 126.535394 
L 152.58362 126.455702 
L 153.148512 125.377474 
L 154.278295 126.475995 
L 154.843187 126.318061 
L 155.408079 121.562898 
L 155.97297 125.053349 
L 156.537862 124.048305 
L 157.102754 125.215927 
L 157.667645 122.584896 
L 158.232537 124.060435 
L 158.797429 124.881611 
L 159.36232 124.705996 
L 160.492104 125.989901 
L 161.621887 125.812951 
L 162.186779 125.560258 
L 162.75167 125.724756 
L 163.316562 126.043223 
L 163.881454 125.526285 
L 164.446345 125.564215 
L 165.011237 125.769302 
L 166.14102 124.782381 
L 166.705912 124.650703 
L 167.270804 125.525136 
L 167.835695 125.222295 
L 168.400587 126.24454 
L 168.965479 126.83535 
L 169.530371 126.754526 
L 170.095262 127.084469 
L 170.660154 127.74416 
L 171.225046 126.582817 
L 171.789937 126.714644 
L 172.354829 126.718188 
L 172.919721 125.418318 
L 173.484612 126.248231 
L 174.049504 126.117305 
L 174.614396 125.524207 
L 175.179287 125.270022 
L 175.744179 126.089369 
L 176.309071 126.645273 
L 176.873962 125.083058 
L 177.438854 126.073494 
L 178.003746 126.339277 
L 178.568637 125.298844 
L 179.133529 125.84112 
L 179.698421 124.406419 
L 180.263312 125.275146 
L 180.828204 125.047781 
L 181.393096 123.517993 
L 181.957987 125.321987 
L 182.522879 126.085104 
L 183.087771 123.075755 
L 183.652662 121.660555 
L 184.217554 122.207983 
L 184.782446 125.065323 
L 185.347338 122.103476 
L 185.912229 121.964084 
L 186.477121 107.72105 
L 187.042013 113.512071 
L 187.606904 114.889364 
L 188.171796 102.083228 
L 188.736688 107.582818 
L 189.301579 104.355703 
L 189.866471 118.855317 
L 190.431363 99.580114 
L 190.996254 101.662897 
L 191.561146 102.637295 
L 192.126038 103.23276 
L 192.690929 106.095071 
L 193.255821 107.535807 
L 193.820713 96.293243 
L 194.385604 89.52042 
L 194.950496 89.751824 
L 195.515388 93.410622 
L 196.080279 89.014312 
L 196.645171 95.610509 
L 197.210063 96.738216 
L 197.774954 100.334312 
L 198.339846 97.107724 
L 198.904738 97.346465 
L 199.469629 100.407946 
L 200.034521 85.657861 
L 201.164305 90.572289 
L 201.729196 89.882043 
L 202.294088 102.184361 
L 202.85898 96.186392 
L 203.423871 91.40084 
L 203.988763 94.011792 
L 204.553655 99.270487 
L 205.118546 97.769133 
L 205.683438 103.644394 
L 206.24833 104.422569 
L 206.813221 108.898071 
L 207.378113 121.195144 
L 207.943005 123.98266 
L 208.507896 114.486631 
L 209.072788 124.564405 
L 209.63768 109.004313 
L 210.202571 117.544086 
L 210.767463 107.616208 
L 211.332355 124.052134 
L 211.897246 124.956751 
L 212.462138 124.997424 
L 213.02703 125.271297 
L 213.591921 125.045 
L 214.156813 126.088345 
L 214.721705 125.422514 
L 215.286596 122.523698 
L 215.851488 123.332312 
L 216.41638 124.466823 
L 216.981272 124.141312 
L 217.546163 124.082913 
L 218.111055 123.465716 
L 218.675947 121.974302 
L 219.240838 121.589268 
L 219.80573 123.741365 
L 220.370622 122.6139 
L 220.935513 123.616032 
L 222.065297 123.933181 
L 222.630188 121.952078 
L 223.19508 124.66976 
L 223.759972 125.705732 
L 224.324863 125.287814 
L 224.889755 125.945081 
L 225.454647 124.423992 
L 226.019538 126.078189 
L 226.58443 125.614004 
L 227.149322 126.289275 
L 227.714213 123.590964 
L 228.279105 125.36936 
L 228.843997 125.911406 
L 229.408888 125.164429 
L 229.97378 125.743849 
L 230.538672 125.310702 
L 231.103563 125.81219 
L 231.668455 125.228076 
L 232.233347 125.754313 
L 232.798239 125.544648 
L 233.36313 127.384342 
L 233.928022 128.270558 
L 234.492914 127.314513 
L 235.057805 125.839824 
L 235.622697 126.396682 
L 236.187589 125.569637 
L 236.75248 126.168408 
L 237.317372 125.527843 
L 237.882264 126.252954 
L 238.447155 126.119727 
L 239.012047 126.512369 
L 239.576939 125.88331 
L 240.14183 124.54889 
L 240.706722 126.049213 
L 241.271614 126.930086 
L 241.836505 127.142552 
L 242.401397 127.169842 
L 242.966289 127.012812 
L 243.53118 126.101484 
L 244.096072 126.224204 
L 244.660964 124.708422 
L 245.225855 123.691808 
L 245.790747 125.894453 
L 246.355639 126.460198 
L 246.92053 124.376768 
L 248.615206 123.284857 
L 249.180097 123.258977 
L 249.744989 121.005376 
L 250.309881 122.434553 
L 250.874772 122.212062 
L 251.439664 121.445245 
L 252.004556 121.062316 
L 252.569447 120.438534 
L 253.134339 113.708342 
L 253.699231 123.619554 
L 254.264122 122.072854 
L 254.829014 121.592219 
L 255.958797 119.408471 
L 256.523689 117.585921 
L 257.088581 118.904042 
L 257.653472 121.817707 
L 258.218364 120.711887 
L 258.783256 111.774182 
L 259.348147 123.553475 
L 259.913039 122.791033 
L 260.477931 120.920229 
L 261.042822 122.949076 
L 261.607714 122.835899 
L 262.172606 119.04468 
L 262.737497 123.363879 
L 263.867281 117.473699 
L 264.432173 119.890894 
L 264.997064 120.052 
L 265.561956 122.430856 
L 266.126848 119.83063 
L 266.691739 122.947376 
L 267.256631 112.510467 
L 267.821523 122.916954 
L 268.386414 121.021834 
L 268.951306 124.335263 
L 269.516198 125.965558 
L 270.081089 126.498239 
L 270.645981 126.056906 
L 271.210873 125.258137 
L 271.775764 123.017949 
L 272.340656 124.802974 
L 272.905548 125.469408 
L 273.470439 125.156345 
L 274.035331 125.946959 
L 274.600223 125.583846 
L 275.165114 125.062733 
L 275.730006 125.165663 
L 276.294898 124.709762 
L 276.859789 126.469778 
L 277.424681 125.857851 
L 279.119356 126.323363 
L 279.684248 125.921991 
L 280.24914 125.241179 
L 280.814031 127.393887 
L 281.378923 125.550611 
L 281.943815 126.260988 
L 282.508706 125.698058 
L 283.073598 125.766789 
L 283.63849 124.923941 
L 284.203381 124.387435 
L 284.768273 125.443411 
L 285.333165 125.38068 
L 285.898056 125.555129 
L 286.462948 125.982131 
L 287.02784 125.692164 
L 287.592731 125.881093 
L 288.157623 125.557679 
L 288.722515 125.984787 
L 289.287406 125.004406 
L 289.852298 123.747338 
L 290.41719 124.53789 
L 290.982081 125.107951 
L 291.546973 125.075083 
L 292.111865 123.965763 
L 292.676756 125.424799 
L 293.241648 124.52338 
L 293.80654 124.868574 
L 294.371431 123.348666 
L 294.936323 118.757324 
L 295.501215 120.664742 
L 296.066106 124.282321 
L 296.630998 120.72986 
L 297.19589 124.045351 
L 297.760782 123.609136 
L 298.325673 122.984263 
L 298.890565 125.016627 
L 299.455457 125.58082 
L 300.020348 126.73475 
L 300.58524 123.967962 
L 301.150132 125.479676 
L 301.715023 124.14774 
L 302.279915 110.54471 
L 302.844807 101.653736 
L 303.409698 104.342295 
L 303.97459 109.563793 
L 304.539482 120.644682 
L 305.104373 122.782 
L 305.669265 123.314048 
L 306.234157 125.605708 
L 307.36394 123.501739 
L 307.928832 124.523652 
L 308.493723 124.321833 
L 309.058615 125.352962 
L 309.623507 125.921797 
L 310.188398 126.131492 
L 310.75329 126.082967 
L 311.318182 126.159158 
L 311.318182 126.159158 
" style="fill:none;stroke:#36b469;stroke-linecap:square;stroke-width:3;"/>
   </g>
   <g id="patch_6">
    <path d="M 45 131.442353 
L 45 83.477647 
" style="fill:none;stroke:#000000;stroke-linecap:square;stroke-linejoin:miter;stroke-width:0.8;"/>
   </g>
   <g id="patch_7">
    <path d="M 45 131.442353 
L 324 131.442353 
" style="fill:none;stroke:#000000;stroke-linecap:square;stroke-linejoin:miter;stroke-width:0.8;"/>
   </g>
  </g>
  <g id="axes_3">
   <g id="patch_8">
    <path d="M 45 189 
L 324 189 
L 324 141.035294 
L 45 141.035294 
z
" style="fill:#ffffff;"/>
   </g>
   <g id="matplotlib.axis_5">
    <g id="xtick_1">
     <g id="line2d_3">
      <defs>
       <path d="M 0 0 
L 0 3.5 
" id="m3c57f7d5b1" style="stroke:#000000;stroke-width:0.8;"/>
      </defs>
      <g>
       <use style="stroke:#000000;stroke-width:0.8;" x="76.323244" xlink:href="#m3c57f7d5b1" y="189"/>
      </g>
     </g>
    </g>
    <g id="xtick_2">
     <g id="line2d_4">
      <g>
       <use style="stroke:#000000;stroke-width:0.8;" x="132.24752" xlink:href="#m3c57f7d5b1" y="189"/>
      </g>
     </g>
    </g>
   </g>
   <g id="matplotlib.axis_6"/>
   <g id="line2d_5">
    <path clip-path="url(#p82a1020cca)" d="M 57.681818 181.978696 
L 58.24671 165.315125 
L 58.811602 167.982394 
L 59.376493 179.980401 
L 59.941385 167.24112 
L 60.506277 173.862921 
L 61.071168 164.914261 
L 61.63606 182.828635 
L 62.200952 154.595604 
L 62.765843 146.594699 
L 63.330735 145.829343 
L 64.460518 156.691014 
L 65.02541 159.300483 
L 65.590302 164.68172 
L 66.155193 183.58867 
L 67.284977 183.637994 
L 67.849868 184.500943 
L 68.41476 185.128945 
L 68.979652 179.513913 
L 69.544543 185.891127 
L 70.674327 185.724009 
L 71.239218 184.466361 
L 71.80411 184.145219 
L 72.369002 184.252006 
L 72.933894 184.110561 
L 73.498785 184.729303 
L 74.063677 184.493462 
L 74.628569 184.591307 
L 75.19346 184.165666 
L 75.758352 180.068045 
L 76.323244 183.126671 
L 76.888135 183.670044 
L 77.453027 182.750414 
L 78.017919 183.830816 
L 78.58281 184.248366 
L 79.147702 184.189453 
L 79.712594 162.220922 
L 80.277485 169.444129 
L 80.842377 183.72061 
L 81.407269 178.806564 
L 81.97216 154.592202 
L 82.537052 147.445848 
L 83.101944 148.713286 
L 83.666835 153.762667 
L 84.796619 164.980021 
L 85.36151 174.904715 
L 85.926402 182.812517 
L 86.491294 185.340773 
L 87.056185 185.726811 
L 87.621077 185.752522 
L 88.185969 184.814594 
L 88.75086 184.712786 
L 89.315752 184.887024 
L 89.880644 183.768635 
L 90.445536 183.030262 
L 91.010427 175.15272 
L 91.575319 179.594279 
L 92.140211 177.351894 
L 92.705102 183.856642 
L 93.269994 183.920373 
L 94.399777 183.263374 
L 94.964669 182.030054 
L 95.529561 183.504068 
L 96.094452 183.875779 
L 96.659344 178.880019 
L 97.224236 163.412432 
L 97.789127 172.414376 
L 98.354019 183.367854 
L 98.918911 183.15003 
L 99.483802 184.227004 
L 100.048694 184.509678 
L 100.613586 184.13997 
L 101.178477 184.158113 
L 101.743369 183.871498 
L 102.308261 184.505718 
L 102.873152 185.758301 
L 103.438044 182.772768 
L 104.002936 182.721659 
L 104.567827 182.321226 
L 105.132719 183.083826 
L 105.697611 183.028194 
L 106.262503 182.54713 
L 106.827394 183.653997 
L 107.392286 163.061564 
L 107.957178 147.347565 
L 108.522069 143.215508 
L 109.086961 150.625836 
L 110.216744 162.014673 
L 110.781636 184.486225 
L 111.346528 185.290875 
L 111.911419 186.306857 
L 113.041203 185.780788 
L 114.170986 183.785659 
L 114.735878 184.06948 
L 115.300769 183.848975 
L 115.865661 183.380815 
L 116.995444 152.141485 
L 117.560336 149.507875 
L 118.125228 156.423168 
L 118.690119 173.377227 
L 119.255011 184.171484 
L 119.819903 184.229602 
L 120.384794 186.819786 
L 120.949686 186.321101 
L 121.514578 186.100183 
L 122.07947 185.722337 
L 122.644361 185.935948 
L 123.209253 186.434514 
L 123.774145 186.428625 
L 124.903928 184.082947 
L 125.46882 184.354869 
L 126.598603 184.296864 
L 127.728386 184.167328 
L 128.293278 184.359249 
L 128.85817 184.084137 
L 129.987953 184.471748 
L 130.552845 184.149599 
L 132.812411 184.560036 
L 133.377303 184.526415 
L 134.507086 182.960412 
L 135.071978 184.258126 
L 135.63687 165.029439 
L 136.201761 152.201673 
L 136.766653 149.778307 
L 137.331545 155.719621 
L 137.896437 163.135633 
L 138.461328 177.908563 
L 139.02622 182.194117 
L 139.591112 183.549181 
L 140.156003 185.306888 
L 140.720895 186.20173 
L 141.285787 185.713609 
L 141.850678 186.60168 
L 142.41557 186.00528 
L 142.980462 184.84954 
L 143.545353 184.781517 
L 144.110245 184.97813 
L 144.675137 186.351365 
L 145.240028 186.165294 
L 146.369812 184.351308 
L 146.934703 184.387011 
L 147.499595 184.583025 
L 148.064487 156.677055 
L 148.629378 148.092324 
L 149.759162 156.517511 
L 150.888945 181.935998 
L 151.453837 184.478382 
L 152.018728 184.041048 
L 152.58362 184.539682 
L 153.713404 184.756047 
L 154.278295 184.577497 
L 154.843187 184.806835 
L 155.408079 185.362769 
L 155.97297 185.172182 
L 156.537862 184.181533 
L 157.102754 184.204815 
L 157.667645 184.349107 
L 158.232537 184.208628 
L 159.927212 184.239192 
L 160.492104 184.931597 
L 161.056995 184.678503 
L 161.621887 184.646895 
L 162.186779 183.853375 
L 163.316562 183.798095 
L 163.881454 183.479674 
L 164.446345 178.707814 
L 165.011237 183.974088 
L 165.576129 155.538885 
L 166.14102 147.336026 
L 167.270804 156.291112 
L 168.400587 183.50086 
L 168.965479 183.498957 
L 169.530371 184.257263 
L 170.095262 185.323763 
L 170.660154 185.535768 
L 171.225046 184.263503 
L 172.354829 184.120163 
L 172.919721 183.958496 
L 173.484612 182.400452 
L 174.049504 182.393682 
L 174.614396 183.795591 
L 175.179287 183.755037 
L 175.744179 183.871171 
L 176.309071 176.852848 
L 176.873962 182.565254 
L 177.438854 182.42675 
L 178.003746 183.554963 
L 178.568637 184.105419 
L 179.133529 182.795833 
L 179.698421 183.8364 
L 180.263312 184.300968 
L 181.393096 184.148509 
L 181.957987 183.757643 
L 182.522879 184.125605 
L 183.087771 182.534698 
L 183.652662 180.554935 
L 184.217554 183.288042 
L 185.347338 183.474982 
L 186.477121 178.942931 
L 187.042013 172.970843 
L 187.606904 152.709215 
L 188.171796 144.983918 
L 188.736688 149.6175 
L 189.301579 152.546077 
L 189.866471 158.024718 
L 190.431363 159.457216 
L 190.996254 172.858888 
L 191.561146 158.115578 
L 192.126038 148.765612 
L 192.690929 148.806889 
L 193.255821 157.897344 
L 193.820713 158.13512 
L 194.385604 185.738568 
L 194.950496 185.733782 
L 195.515388 184.710268 
L 196.080279 185.894935 
L 196.645171 184.348485 
L 197.210063 184.111373 
L 198.339846 184.475313 
L 198.904738 184.303743 
L 199.469629 184.274223 
L 200.034521 183.794962 
L 200.599413 184.873956 
L 201.164305 185.27467 
L 201.729196 184.427205 
L 202.294088 184.557659 
L 203.423871 184.263153 
L 203.988763 183.924978 
L 204.553655 155.047656 
L 205.118546 147.001996 
L 205.683438 149.821177 
L 206.24833 157.745787 
L 206.813221 175.275879 
L 207.378113 182.085222 
L 207.943005 184.420144 
L 208.507896 184.664945 
L 209.072788 184.672024 
L 209.63768 183.908821 
L 210.202571 180.844777 
L 210.767463 181.190495 
L 211.332355 184.335488 
L 211.897246 184.017907 
L 212.462138 184.003171 
L 213.02703 184.356533 
L 213.591921 183.898783 
L 214.156813 182.548122 
L 214.721705 158.072821 
L 215.286596 145.674096 
L 215.851488 145.151659 
L 216.41638 149.412288 
L 216.981272 157.152122 
L 217.546163 160.084644 
L 218.111055 178.405873 
L 218.675947 167.452871 
L 219.240838 184.378853 
L 219.80573 184.021483 
L 220.370622 183.814898 
L 220.935513 182.734318 
L 221.500405 183.989444 
L 222.630188 182.757394 
L 223.19508 184.110106 
L 223.759972 183.940212 
L 224.324863 184.450292 
L 224.889755 184.292669 
L 225.454647 183.676491 
L 226.019538 184.51089 
L 226.58443 180.620952 
L 227.149322 152.591339 
L 227.714213 146.624351 
L 228.279105 144.841032 
L 229.408888 160.184855 
L 229.97378 181.610439 
L 230.538672 184.034388 
L 231.103563 185.876176 
L 231.668455 185.796041 
L 232.233347 184.698576 
L 232.798239 185.55119 
L 233.36313 186.140558 
L 233.928022 182.669131 
L 234.492914 151.057358 
L 235.622697 145.840636 
L 236.187589 146.603557 
L 236.75248 152.946177 
L 237.317372 160.97764 
L 237.882264 183.500208 
L 238.447155 186.72502 
L 239.012047 186.17377 
L 239.576939 185.338711 
L 240.706722 185.180751 
L 241.271614 185.295475 
L 241.836505 185.039747 
L 242.401397 186.082971 
L 242.966289 184.792858 
L 244.660964 184.016414 
L 245.225855 184.287334 
L 245.790747 184.369825 
L 246.355639 184.149662 
L 246.92053 184.292878 
L 247.485422 184.310644 
L 248.615206 184.143956 
L 249.180097 184.297785 
L 249.744989 184.302849 
L 250.309881 184.071217 
L 250.874772 184.142438 
L 251.439664 184.067566 
L 252.004556 184.133486 
L 252.569447 183.754812 
L 253.134339 154.49545 
L 253.699231 151.535254 
L 254.264122 153.340042 
L 254.829014 157.769181 
L 255.958797 151.787313 
L 256.523689 154.068786 
L 257.088581 164.677561 
L 257.653472 182.857167 
L 258.218364 182.182768 
L 258.783256 184.886191 
L 259.348147 186.409614 
L 259.913039 186.079593 
L 261.042822 184.822627 
L 261.607714 184.396593 
L 262.172606 184.489678 
L 262.737497 184.249246 
L 263.302389 183.581204 
L 263.867281 184.026318 
L 264.432173 183.580827 
L 264.997064 184.088076 
L 266.126848 184.001761 
L 267.256631 183.829678 
L 267.821523 184.71646 
L 268.386414 184.624097 
L 268.951306 157.679197 
L 269.516198 148.883029 
L 270.081089 150.126624 
L 270.645981 155.950338 
L 271.210873 153.97199 
L 271.775764 150.219458 
L 272.340656 147.452862 
L 272.905548 145.833819 
L 273.470439 146.722812 
L 274.600223 156.477494 
L 275.165114 156.008557 
L 275.730006 149.820768 
L 276.294898 146.435807 
L 276.859789 144.963617 
L 277.424681 145.118389 
L 277.989573 143.406586 
L 279.119356 150.775724 
L 279.684248 155.792901 
L 280.24914 154.694918 
L 280.814031 159.653325 
L 281.378923 158.93963 
L 281.943815 156.158409 
L 282.508706 162.395867 
L 283.073598 147.418714 
L 283.63849 143.62443 
L 284.203381 148.693847 
L 285.333165 155.14084 
L 285.898056 162.512259 
L 286.462948 161.378432 
L 287.02784 183.744961 
L 288.157623 167.66235 
L 288.722515 162.213019 
L 289.287406 173.749133 
L 290.41719 182.049716 
L 290.982081 179.184991 
L 291.546973 181.041414 
L 292.111865 180.688848 
L 292.676756 182.75177 
L 293.241648 183.140612 
L 293.80654 181.778181 
L 294.371431 178.761577 
L 294.936323 183.957143 
L 295.501215 183.446492 
L 296.066106 183.463136 
L 296.630998 182.434391 
L 297.19589 184.18635 
L 297.760782 184.145924 
L 298.325673 183.530124 
L 298.890565 183.64339 
L 299.455457 160.091529 
L 300.020348 158.302537 
L 301.150132 181.456974 
L 301.715023 152.390155 
L 302.279915 143.561524 
L 303.409698 148.473134 
L 303.97459 156.902963 
L 304.539482 168.603079 
L 305.104373 183.025966 
L 305.669265 184.947919 
L 306.234157 185.949592 
L 306.799048 185.358115 
L 307.36394 185.292396 
L 307.928832 184.084395 
L 308.493723 184.740928 
L 309.058615 184.741614 
L 309.623507 184.252098 
L 310.188398 184.80542 
L 310.75329 185.689541 
L 311.318182 186.052173 
L 311.318182 186.052173 
" style="fill:none;stroke:#bd870a;stroke-linecap:square;stroke-width:3;"/>
   </g>
   <g id="patch_9">
    <path d="M 45 189 
L 45 141.035294 
" style="fill:none;stroke:#000000;stroke-linecap:square;stroke-linejoin:miter;stroke-width:0.8;"/>
   </g>
   <g id="patch_10">
    <path d="M 45 189 
L 324 189 
" style="fill:none;stroke:#000000;stroke-linecap:square;stroke-linejoin:miter;stroke-width:0.8;"/>
   </g>
  </g>
 </g>
 <defs>
  <clipPath id="p3f124492aa">
   <rect height="47.964706" width="279" x="45" y="25.92"/>
  </clipPath>
  <clipPath id="p484f464991">
   <rect height="47.964706" width="279" x="45" y="83.477647"/>
  </clipPath>
  <clipPath id="p82a1020cca">
   <rect height="47.964706" width="279" x="45" y="141.035294"/>
  </clipPath>
 </defs>
</svg>
